<svg version="1" xmlns="http://www.w3.org/2000/svg" width="1248" height="1248" viewBox="0 0 936.000000 936.000000"><path d="M439 1c0 .6-1.8.7-4.5.3-2.5-.3-4.5-.2-4.5.3s-1.7 1-3.7 1.2c-2 .1-4.1.7-4.8 1.2-.7.6-1.5.6-2.3-.2-.8-.8-1.5-.7-2.6.4-.8.8-3.8 1.8-6.7 2.1-2.9.4-5.6 1.2-6.1 1.9-.5.9-.8.9-.8.1 0-.7-1.8-.2-4.7 1.3-2.7 1.3-5.9 2.4-7.1 2.4-1.3 0-3.5.9-4.9 2-1.4 1.1-4 2-5.8 2-1.8 0-4.2.9-5.5 2-1.4 1.2-3.1 1.8-4.2 1.4-1-.3-1.8-.1-1.8.5s-.7.8-1.6.4c-.9-.3-2.1.3-3 1.6-.8 1.1-2.2 2.1-3 2.1-.8 0-2.6 1.2-4.1 2.6-1.4 1.4-3.1 2.3-3.9 2-.7-.3-1.6-.1-2 .5-.3.6-1.2.8-2 .5-.8-.3-2.2.3-3.1 1.4-1 1.1-3.2 2.5-5 3.1-1.8.6-3.3 1.5-3.3 2s-.6.9-1.4.9c-.7 0-1.9.7-2.6 1.5-.7.8-1.9 1.5-2.7 1.5-1.5 0-3.1 1.2-6.8 4.7-1.2 1.3-2.6 2.3-3 2.3-.4 0-1.9.8-3.3 1.9-1.5 1-4.2 2.2-5.9 2.6-1.9.4-3.3 1.3-3.3 2.1 0 .9-.4 1.2-1 .9-.5-.3-1-.1-1 .4 0 .6-.5 1.1-1.1 1.1-.6 0-1.7.6-2.4 1.2-3.1 2.8-4.4 3.8-5.1 3.8-.3 0-1.5 1.1-2.6 2.5s-2.3 2.3-2.7 2c-.5-.2-1.6.4-2.6 1.5s-2.4 2-3 2c-.7 0-2 1.1-2.9 2.5-.9 1.4-2.2 2.5-2.9 2.3-.7-.1-2.8 1.3-4.8 3.2-5.1 4.9-6.6 6-7.3 5.3-.3-.3-.8.2-1.2 1.1-.4 1.1-1.3 1.5-2.6 1-1.7-.5-1.9-.3-1.3 1.5.5 1.7 0 2.3-2.2 3.3-1.5.6-3.2 1.2-3.8 1.2-.5.1-2.7 2-4.8 4.3-2.6 2.8-4.4 4-5.4 3.6-1-.4-1.4-.2-1 .4.7 1.1-6.2 7.3-8 7.3-.5 0-1.7 1.3-2.6 3-1 1.6-2.5 3-3.2 3-.8 0-4.2 2.7-7.6 6-3.3 3.3-6.5 5.8-7 5.4-.5-.3-.9.1-.9 1 0 1.2-5 5.8-13.8 12.6-1.1.8-2.3 3-2.6 4.8l-.6 3.3 4-.3c2.2-.1 4-.5 4-.9s1.7-1.8 3.8-3c2-1.3 3.9-2.6 4.2-3 .3-.3 2.1-1.4 4-2.4s6-3.7 9-6c3-2.4 6.9-5 8.5-5.8 1.7-.9 4.9-3.3 7.3-5.5 2.3-2.2 4.2-3.8 4.2-3.5 0 .3.9-.6 2.1-2.1 1.1-1.4 2.6-2.6 3.2-2.6 1.1 0 12.4-8.4 17.5-12.9 1.2-1.1 2.2-1.8 2.2-1.5 0 .3 1.9-.8 4.2-2.5 2.2-1.7 4.4-2.8 4.8-2.6.4.3 1-.3 1.2-1.3.3-.9 1.8-2.4 3.4-3.2 1.6-.8 4.1-2.7 5.6-4.3 1.5-1.5 3.4-2.7 4.3-2.7.9 0 1.8-.6 2.1-1.3.3-.8 1.9-2.4 3.5-3.6 2.9-2.2 3.1-2.2 4.4-.4 1.4 1.7 1.4 1.7 1.5-.2 0-1.9 5.2-7.5 7-7.5.5 0 1 .6 1.3 1.2.2.8 1 .2 1.7-1.4.7-1.4 3.5-3.9 6.4-5.4 2.8-1.6 6-3.4 7.1-4.1 2.7-1.7 6.8-3.3 7.9-3.2.5 0 1.3-.6 1.8-1.5s1.6-1.6 2.3-1.6c.8 0 1.4-.3 1.2-.8-.1-.4 0-.8.3-.9.3-.1 2.8-1.3 5.5-2.7 3.7-1.7 5.5-2.1 6.8-1.4 1.5.8 2 .5 2.4-1.2.5-1.8 1.1-2.1 3.7-1.7 2.6.4 3.4.1 4.2-1.6 1.1-2.6 3.2-2.9 5.7-.9 2.1 1.8 3.5.8 1.8-1.2-1-1.2-.5-1.9 2.9-4.1 2.2-1.4 4.5-2.3 5-2 .5.3 1.1.1 1.4-.4.4-.5 3-1.7 5.9-2.6 2.8-1 5.6-2.1 6.1-2.6.6-.5 2-.9 3.2-.9 1.2 0 2.5-.6 2.7-1.3.4-.9.6-.8.6.2.1 1.1.4 1.1 1.6.1.8-.6 2-1 2.7-.7.7.2 2-.1 2.8-.8.8-.7 3.1-1.6 5-1.9 1.9-.3 5.9-1 8.7-1.6 2.9-.7 10-1.2 15.8-1.3 5.8-.1 10.5-.5 10.5-.8 0-.8 15.4-.4 16.6.4.5.3 3.6.6 6.9.6 5.5.1 12.5 1.8 14.1 3.4.4.4 1.7.7 2.9.7 1.3 0 2.8.7 3.5 1.5.7.8 2.1 1.5 3.1 1.5 1.1 0 1.9.4 1.9 1 0 .5.9 1 2 1s2.3.6 2.6 1.4c.3.8 1.2 1.2 2 .9.7-.3 1.6.2 2 1 .3.9 1.8 1.9 3.3 2.2 1.6.3 3.7 1.5 4.9 2.5 1.1 1 2.2 1.6 2.5 1.4.3-.3.8.4 1.2 1.5.3 1.2 1.3 2.1 2.1 2.1 2.4 0 7.4 4.2 7.4 6.2 0 1 .5 1.5 1.3 1.2.8-.3 3 1.2 4.9 3.4 1.9 2.1 5.1 5.1 7.1 6.6 2.8 2.1 3.7 3.6 3.7 5.7 0 1.6.5 2.9 1 2.9.6 0 1-.4 1-1 0-.5.7-.7 1.5-.4.8.4 1.5 1 1.5 1.5 0 .4 1.4 2.8 3 5.2 1.7 2.5 3 5.2 3 6.1 0 1.4 2.1 4.3 5.8 8.2.6.7 1.2 1.8 1.2 2.4 0 .6.6 2.1 1.4 3.3.8 1.2 1.7 3.8 2.1 5.7.4 1.9 1.5 4.6 2.5 6 1.8 2.7 2.9 6.4 3.5 12 .4 4.6 1 6.8 1.8 7.6 1.1 1.2.8 7.2-.4 8-.8.4-.7.9.2 1.5 2.4 1.4 1.3 37.4-1.2 42.1-.5.9-1.1 3.2-1.3 5.1-.6 4.4-3.2 10.7-4.4 10.7-.6 0-1.3 2.1-1.7 4.7-.4 2.7-1.4 5.6-2.2 6.5-.8.9-1.2 2.1-.8 2.7.7 1.3-2.3 8.1-3.6 8.1-.5 0-.9.7-.9 1.6 0 .9-1.4 3.9-3 6.6-1.7 2.7-3.3 6.3-3.7 7.9-.3 1.6-1.4 3.4-2.4 3.9-1 .6-3 3.3-4.5 6-1.7 3.2-3.3 4.9-4.1 4.6-.8-.3-1.3.2-1.3 1.5 0 2.3-4.8 9.9-6.3 9.9-.6 0-.8.3-.5.6.4.3-1 2.1-3.1 3.9-2 1.9-4.3 4.6-5.1 6.2-1.7 3.1-6.1 7.6-11.1 11.2-1.9 1.3-5.2 4.6-7.4 7.2-3.5 4.2-15.9 13.9-17.9 13.9-.3 0-2.5 1.3-4.8 3-2.2 1.6-4.7 3-5.5 3-.8 0-2.3.9-3.5 2-1.2 1.1-3.2 2-4.4 2-1.2 0-2.4.5-2.6 1.2-.4 1.1-2.9 2-6 1.9-1 0-1.8.4-1.8.9s-1.5 1.4-3.4 2c-1.9.6-3.9 1.7-4.5 2.4-.6.8-2.8 1.6-4.9 2-2.1.3-5.2 1.3-7 2.1-1.7.9-4.8 1.8-6.9 1.9-2.1.2-6.5.9-9.8 1.6-9.8 1.9-12.2 2.1-30.5 2.1-12.3 0-19.7-.4-24.8-1.5-4-.9-8.8-1.6-10.6-1.6-1.9 0-3.9-.7-4.7-1.6-.7-.8-2.1-1.3-3.1-1.1-1 .3-1.8.2-1.8-.1 0-.4-1.4-1.5-3.1-2.4-1.9-1.1-2.9-2.4-2.7-3.5.2-1.5-.4-1.8-3.5-1.8-2.9-.1-4.4-.8-7.2-3.7-1.9-2-4.2-5.3-5.1-7.4-.9-2.2-1.9-3.3-2.3-2.6-1.2 2-7.9-1.2-12.2-5.8-4.5-4.8-11.2-18.2-12.9-25.7-.6-2.7-1.5-5.6-2.1-6.5-1.2-2.3-1.3-5.9-1.1-26.2.1-9.3.7-18.7 1.4-21 .6-2.2 1.1-4.7.9-5.3-.1-.7 1.1-5.9 2.8-11.5 1.6-5.7 3.2-11.9 3.6-13.8.4-1.9 1.5-5.3 2.5-7.5.9-2.2 2.3-5.5 3-7.3.7-1.7 1.7-3.2 2.2-3.2.5 0 .6-.5.3-1-.7-1.2 4.8-13.5 6.5-14.5.6-.3 1-1.4 1-2.4s1.1-3 2.5-4.5 2.5-3.2 2.5-3.8c0-.7 2.3-4.4 5-8.4 2.8-4 5-7.9 5-8.8 0-.8.9-2.1 2-2.9 1.1-.7 3.3-3.1 4.9-5.3 1.6-2.1 5.2-6.3 8-9.2 2.8-3 5.1-5.8 5.1-6.3s.5-.9 1.1-.9c.6 0 2.9-2 5.1-4.5 2.2-2.5 4.4-4.5 5-4.5.5 0 1.6-.6 2.3-1.3 2.9-2.5 4.3-3.5 8.3-6.1 2.3-1.4 4.2-3 4.2-3.5s1.8-1.2 4-1.6c2.2-.4 4.2-1.1 4.6-1.6.9-1.5 7.4-3.9 10.4-3.9 1.5 0 3.3-.6 3.9-1.4.7-.8 2.1-1.2 3.3-.8 1.4.3 2.6-.1 3.4-1.3 1-1.4 1.7-1.5 2.7-.7 1 .8 3 .7 7.7-.4 5.9-1.4 9-1.4 20 0 2 .3 4.7.9 6.2 1.5 1.4.5 3.5.7 4.7.4 1.2-.3 2.1-.1 2.1.6 0 .6.9 1.1 2 1.1s2 .3 2 .7c0 .5 1.1.9 2.4.9 1.3.1 5.5 1.7 9.2 3.5 7.8 3.9 20.9 16.1 22 20.6.4 1.6 1.1 3 1.5 3.4.5.3 1.8 3.9 2.9 8 1.2 4 2.5 8.7 3 10.3.6 1.8.6 3.6 0 4.7-.6 1-1 2.5-1 3.5 0 1.6.1 1.6 1.8.1 1.9-1.8 3.2-1.4 3.2.9 0 .8-.6 1.1-1.7.7-1.1-.4-1.4-.3-.9.5.4.7 1.3 1.2 2.1 1.2 1.6 0 5.7-5.4 4.8-6.4-.3-.3-.1-.6.5-.6s1.8-2.6 2.7-5.7c2.1-7.1 1.5-12.2-2.7-22.4-2.5-6.2-4.5-9.2-10.9-15.9-4.4-4.6-7.9-8.7-7.9-9.1 0-.5-.7-.9-1.5-.9-1.7 0-5.6-2-6.6-3.4-.4-.5-1.1-.6-1.7-.2-.5.3-1.6-.1-2.3-1-1.5-1.9-8.2-5.4-10.3-5.4-.7 0-1.6-.6-1.9-1.4-.3-.9-1.5-1.2-3.1-.9-1.7.4-2.6.1-2.6-.7 0-.7-.7-1-1.5-.6-.8.3-1.5.1-1.5-.5s-.7-.9-1.5-.5c-1.3.4-3.9-.1-9.5-2.1-1.5-.5-19.8-.5-23.5 0-1.1.2-2.6.6-3.2 1-.6.4-1.5.3-1.8-.3-.5-.8-1.1-.8-2.1 0-.7.7-1.9 1-2.6.8-.7-.3-2.7.1-4.5.8-2.1.9-3.3 1-3.5.3-.5-1.4-3.8 0-3.8 1.6 0 .8-.7 1.1-1.8.8-1-.2-3.1.3-4.7 1.1-1.7.9-3.5 1.6-4.1 1.6-.6 0-1.7.7-2.4 1.5s-2.1 1.5-3.1 1.5c-1.1 0-1.9.4-1.9 1 0 .5-1.8 1.3-3.9 1.6-2.3.4-5.1 1.8-6.8 3.4-1.5 1.5-4.3 3.1-6 3.4-1.8.4-3.3 1.2-3.3 1.6 0 1.3-6 8-7.2 8-.5 0-2.8 2-5.1 4.3-2.3 2.4-5.4 5.2-6.9 6.1-1.6 1-2.8 2.5-2.8 3.4 0 1.4-5.8 9.5-10.7 14.8-1.3 1.4-2.3 2.9-2.3 3.4 0 .6-.4 1-.9 1s-1.3 1.2-1.9 2.7c-.5 1.6-2.3 4.5-4 6.6-1.7 2.1-3.4 4.7-3.7 5.8-.4 1-1 1.9-1.4 1.9-.4 0-1.6 1.9-2.6 4.2-.9 2.4-2.3 5.5-3.1 7-.8 1.4-1.4 3.3-1.4 4.1 0 .8-.6 2-1.3 2.6-.8.6-2.5 3.8-3.8 7.1-1.3 3.3-2.7 6-3.2 6-.4 0-.5.4-.2 1 .3.5.1 1-.4 1-.6 0-1.1.7-1.1 1.5s-.6 2.9-1.4 4.7c-.8 1.8-1.9 5.1-2.4 7.3-.6 2.2-1.8 6.7-2.7 10-.9 3.3-2.1 8-2.6 10.5-.4 2.5-1.5 7.4-2.4 11-2.8 11.9-4.5 35.4-3.1 44 .2 1.4.9 5.9 1.6 10 .6 4.1 1.6 8.3 2.1 9.2.5 1 .9 2.7.9 3.9 0 2.6 5.7 15.8 8 18.4.9 1.1 2 2.7 2.3 3.5 2.1 5.7 22.1 24.5 29.9 28 1.4.7 2.8 2 3.1 3 .3 1.3 1.1 1.6 3.1 1.3 3-.6 5.6 1.1 5.6 3.8 0 2.6 1.6 3.2 3.5 1.3 1.4-1.5 2.3-1.5 7.6-.4 3.3.7 7.2 2.2 8.6 3.3 1.4 1.2 2.8 1.6 3.1 1 .6-.8 5.9-1.1 7.2-.3.3.1 4.1.4 8.5.6 10.5.6 10.5.6 10.5 1.6 0 .5-.5 1.8-1 2.8-.7 1.2-.7 2.8 0 4.4 1 2.8 3.9 3.4 8.4 1.6 3.4-1.3 3.9.6 3 11.7-.7 9.5-.7 12.6.2 21.8.7 8.2 1.2 15.8 1.9 30 .3 6.6.5 12.3.6 12.5.1.8.8 11.8 1.3 21.5.2 4.9.7 10.7 1.1 12.7.6 3.1.5 3.8-.9 3.8-.9 0-2.4.8-3.4 1.8-2.7 2.6-6.9 4.5-8.6 3.9-.8-.3-2.2.1-3.1.9-.8.9-1.5 1.3-1.5 1 0-.3-.9.3-2 1.4-1.1 1.1-1.9 2.2-1.7 2.5.1.2-1.9 2.6-4.6 5.3-2.6 2.6-4.4 5.1-4.1 5.5.4.4.2.7-.4.7-.7 0-1.2.6-1.2 1.4 0 .8-1 1.6-2.2 1.8-1.3.2-2.7 1.3-3.3 2.5-.5 1.3-1.4 2.3-1.9 2.3-1.6 0-6.8 6.4-8.9 11-1.1 2.5-2.7 5-3.6 5.7-.9.7-1.2 1.3-.7 1.3s.2.8-.6 1.7c-1.5 1.7-6.8 12.3-6.8 13.6 0 .3-1.4 3-3.1 5.9-1.8 2.9-3.5 6.6-4 8.3-.4 1.6-1.5 5.6-2.3 8.9-3.3 12.1-4.8 43.8-2.4 52.1.5 1.6 1.1 4.6 1.4 6.5.3 1.9.9 3.9 1.4 4.4.4.4.6 1.5.3 2.2-.3.8.1 1.4 1.1 1.4 1.1 0 1.6.9 1.6 3.2 0 2.1 1.3 5.1 3.6 8.3 1.9 2.7 4.3 6.1 5.2 7.5 5.1 7.5 18.5 20.6 23.3 22.8 3.9 1.9 9.7 6.7 22 18.1 4.3 4.1 9.7 8.6 11.8 10 2.1 1.4 5 4 6.5 5.8 1.5 1.8 5.3 4.4 8.4 6 3.1 1.5 6.2 3.4 6.9 4.3.9 1.2 1.4 1.3 2.4.3.7-.7 2.1-1.3 3.1-1.3 1.4 0 1.8-.8 1.8-4 0-2.2-.4-4-.8-4-.5 0-1.4-1.1-2-2.5-.7-1.4-1.8-2.5-2.5-2.3-.8.2-6.7-4.9-13.3-11.3-6.5-6.4-13.9-13.4-16.3-15.5-2.5-2.2-5.8-5.2-7.4-6.8-1.5-1.6-3.6-3-4.5-3.1-2.3-.2-7-3.2-10.9-6.9-1.7-1.7-3.7-3.6-4.5-4.2-.7-.6-2.7-2.7-4.5-4.7-1.8-1.9-3.8-3.9-4.6-4.4-2.1-1.2-12.7-17.4-12.7-19.4 0-1-.4-2-.9-2.3-.4-.3-1.1-2.5-1.4-4.8-.4-2.4-1.1-6.3-1.6-8.8-1.4-6.8-.2-29.2 2.1-39.5 2.9-13 4.5-18 8.9-27.2 2.1-4.5 3.9-8.5 3.9-8.8 0-.4 1.6-2.5 3.5-4.8 1.9-2.2 3.5-4.5 3.5-5s1.8-2.9 4-5.3 4-4.7 4-5.2c0-.4 1.8-2.1 4-3.8 2.2-1.6 4-3.4 4-4 0-.7 1.1-1.5 2.4-1.8 1.3-.3 2.6-1.4 2.8-2.4.4-1.4 1.2-1.8 3.4-1.5 2.2.3 3.8-.4 6.9-3.1 2.2-2 4.5-3.4 5-3.3.6.2 1.3 6 1.7 12.8.4 6.8 1.6 16 2.5 20.4 1 4.4 1.8 12.4 1.9 17.7.1 8.1.6 16 1.9 30.3.6 5.8 3.8 26.8 5 32.5.8 3.6 1.7 8.1 2 10 .4 1.9 2.2 6.8 4.1 10.8 1.9 4 3.4 8.3 3.4 9.6 0 1.3.6 2.9 1.4 3.5.8.7 1.7 2.3 2 3.7.4 1.5 1.4 3.8 2.4 5.2.9 1.3 1.8 3.4 1.9 4.6.2 1.2 1.2 4 2.3 6.3 1.1 2.4 2 4.7 2 5.3 0 .5.4 1 .9 1s1.4 1.5 2.1 3.3c.7 1.7 3 5.7 5 8.7 2 3 4.2 7 4.9 8.8 1.1 2.7 6.7 8.2 16.9 16.8 1.3 1.1 2.2 3 2.2 4.6 0 1.6.5 2.8 1.1 2.8.8 0 1 1.2.6 3.6-.5 3.1-.2 3.9 2.6 6.4 2 1.8 3.6 2.5 4.2 1.9 1.7-1.7 4.7-.9 7.6 2.2 2.4 2.6 3.2 2.9 4.4 1.9.8-.7 1.5-.9 1.5-.4 0 .4.6 0 1.3-.9 1-1.4 2.6-1.6 9.5-1.4 4.5.2 8.2 0 8.2-.5 0-.4 2-.8 4.5-.8 2.6 0 4.5.5 4.5 1.1 0 .6.9.9 2 .6 1.1-.3 2.3-.1 2.6.4.3.5.9.7 1.4.4.5-.3 1.6.2 2.4 1.1.9.9 2.3 1.3 3.2 1 .8-.3 3.4.5 5.7 1.7 2.3 1.3 4.8 2.2 5.4 2 .7-.3 3 .6 5 1.9 2.1 1.2 4.3 2.2 4.9 2 .6-.1 1.9.7 2.9 1.8s2.3 2 2.8 2c.6 0 3.3 1.1 6.2 2.5 4.4 2.2 8.4 6 14 13.3.5.8 2 2.4 3.3 3.7 1.2 1.2 2.2 2.9 2.2 3.7 0 .8.4 1.8.8 2.4.4.5 2.3 4.5 4.1 8.9 1.9 4.4 4.1 9.8 5.1 12 2.8 6.4 5.3 19.2 4.5 23.1-.3 2-.2 4.1.3 4.7 1.2 1.6 3.6 20.1 2.9 22.7-.3 1.1-.1 2.3.5 2.6.7.4.8 3.6.3 8.8-1.2 14.2-2.6 35-2.6 38.3.1 1.8-.3 3.3-.8 3.3s-.9 2-.9 4.5c-.1 2.5-.6 5.4-1.2 6.5-.6 1-.9 2.3-.8 2.7.2.9-1.1 14.3-1.9 18.8-.9 5.3-.3 9.9 1.6 12.5 2.4 3.4 5.2 3.6 8 .6 1.9-2 2.2-3.1 1.6-5.3-1.3-4.6-1.4-7.4-.4-6.7.6.3.7-.4.3-2-.5-2-.3-2.5.8-2.1.8.3 1.5 0 1.5-.7.2-4.1 2.5-16.3 3.1-16.8.4-.3.7-1.5.8-2.8.2-6.4.5-8.3 1.2-7.8.5.3.6-.9.4-2.6-.3-2.1-.1-2.9.7-2.4.7.5.9.1.5-.8-.3-.9-.3-2.4.1-3.4.9-1.9 2-28.1 1.9-45.2-.1-13-.6-18.7-3-29.2-.9-4-2-9.6-2.4-12.3-.8-5-7.4-26.5-9.1-29.7-.5-1-.9-2.5-.9-3.4 0-1-1.1-3.2-2.5-5-1.4-1.8-2.5-3.8-2.5-4.4 0-1.7-9.6-11.5-17.5-18-6-4.8-13.1-9.2-25.5-15.7-1.4-.7-3.4-1.3-4.5-1.3-2.8 0-6.5-1.1-6.5-1.9 0-.3 1.6-.6 3.5-.5 1.9.1 3.9-.4 4.6-1.2 1.5-1.8 8.2-1.7 13.3.1 2.1.7 4.4 1.1 5.1.9.7-.3 2.9.4 4.9 1.5 2 1.2 5.1 2.1 6.9 2.2 6.1.2 11.9 2.1 11.2 3.7-.3.8.3 2.1 1.5 2.9 1.1.8 1.8 1.8 1.6 2.2-.3.4-.1 1.3.4 2.1.8 1.3 1.3 1.3 3 .2 2.1-1.3 7.8-1.6 13.3-.9 1.6.3 4.9 1.9 7.3 3.6 2.5 1.7 4.9 3.1 5.5 3.1 1.6 0 23.2 22.2 25.3 26.1 1 1.9 2.9 4.5 4.1 5.9 1.3 1.4 2.6 4.1 2.9 6 .4 1.9.9 4.8 1.3 6.5.3 1.6 1.3 3.9 2.3 5 .9 1.1 2.1 3.3 2.4 5 .4 1.6 1.4 4.3 2.1 6 1.2 2.6 1.6 5.5 2.5 16.5.1.8.6 3.7 1 6.5 2.3 12.9 4.9 30.6 5.4 36.5.9 12.9 1.9 20.1 2.7 20.6.5.3.9 1 .9 1.5 0 .6-.4.7-1 .4-.5-.3-1-.1-1 .4 0 .6.4 1.1.8 1.1.5 0 .9.6.9 1.3 0 .7 1.8 5.2 4.1 10 2.3 4.7 4.2 9.1 4.2 9.7 0 .6.4.9.9.6.5-.4 2.2.7 3.8 2.3 1.6 1.5 3.9 3.1 5.1 3.5 1.2.4 2.2 1.1 2.2 1.6 0 .4 1.9.6 4.2.3 2.4-.4 3.9-.2 3.5.3-.3.5.2 1 1.1 1.1.9.1 2.9.3 4.5.6 1.5.2 2.7.1 2.7-.3s1.1-.5 2.5-.2c1.4.2 2.5.9 2.5 1.6 0 .8.2.8.8-.1.4-.6 2-1.5 3.6-1.9 1.9-.5 2.7-.3 2.2.4-.4.6.2.8 1.4.5 1.1-.3 2-.9 2-1.4 0-.5.7-.6 1.5-.3 1.1.4 1.5-.1 1.5-1.7 0-1.7.3-2 .9-1.1.7 1.1 1 1 1.5-.3.8-2.3.8-2.7-.3-2-.5.3-1.7-.5-2.6-1.7-1-1.5-1.8-1.9-2.3-1.2-1 1.6-14 1.8-15.8.3-.8-.6-1.7-.9-2.1-.6-1.6 1.7-16.7-8.8-15.8-11.1.3-.8 0-2.1-.7-2.9-.6-.8-1.3-2.2-1.4-3.1-.1-1-.9-4.9-1.7-8.7-.9-3.9-1.8-9.9-2-13.5-.3-3.6-.7-7.2-1-8-.3-.8-.8-3.8-1.1-6.5-1.8-18.5-2.6-25.8-3.2-26.7-.4-.6-.1-1.4.6-1.8.8-.5.9-1.3.2-2.6-1.5-2.8-4.3-12.8-5.8-20.4-.6-3.6-2-9.2-2.9-12.5-1-3.3-1.8-6.7-1.9-7.5-.1-.8-1-3.2-1.9-5.4-.9-2.1-1.7-4.4-1.7-5.1 0-.7-.7-1.5-1.5-1.9-.8-.3-1.5-1.2-1.5-2 0-.7-.7-1.7-1.6-2-.9-.3-1.4-1.3-1.1-2 1-2.5-10.8-15.5-14-15.6-.7 0-1.3-.6-1.3-1.3 0-1.7-12.2-13.5-17.8-17.2-4-2.6-4.2-2.9-2.9-4.9.8-1.2 2-2.1 2.7-2.1.8 0 2.6-1.2 4.1-2.8 3.5-3.4 4.5-3.4 5.2.1.8 4.1 4.5 8.2 7.2 8.2 1.3 0 2.6-.4 3-1 .3-.5 1.2-.7 1.9-.4 1 .4 1.2-.2.9-2-.3-1.5-.1-2.6.6-2.6.5 0 .8-.7.5-1.5-.4-.8-.3-2.3.1-3.3.4-.9.7-3.1.6-4.8-.2-2.4.5-3.9 2.6-5.8 1.5-1.4 3.5-2.6 4.4-2.6.9 0 3.3-1.6 5.3-3.5 4.1-3.8 7.5-4.6 7.2-1.8-.1 1.2.7 1.9 2.2 2.1 1.3.2 2.6 1 2.9 1.8.3.9.9 1.1 1.7.5.6-.5 2.4-.9 4-.9 1.5 0 3.1-.4 3.5-.9.3-.6 1.9-1.4 3.6-2 2.8-.9 3-1.4 4-8.1.6-4 .8-7.2.3-7.2-.4 0-.8-1.2-.8-2.6 0-1.4-.7-3.2-1.5-4-.8-.9-1.6-3.2-1.7-5.2-.3-6.3-.5-7.6-1.5-10.2-.7-1.6-.7-2.7-.1-3.1.6-.4.5-.8-.3-1.1-2.4-.8-1.5-51 .9-52.7 1.2-.9 1.2-5.1.1-5.1-.6 0-.8-.4-.4-1 .3-.5.8-3.9 1-7.6.3-3.7.9-7 1.4-7.3.5-.3 1.2-2.7 1.6-5.3.4-2.6 1.3-4.9 2.1-5.2.9-.3 1.4-2.1 1.4-5 0-2.5.4-4.7.9-5.1.5-.3 1.3-3.6 1.6-7.3.4-3.7 1.4-7.9 2.3-9.3 1.8-3.1 1-7.1-1.8-9.9-1.1-1.1-2-2.5-2-3 0-.6-.8-1-1.9-1-1 0-2.4-.7-3.1-1.5-.8-.9-2.9-1.5-5.6-1.5-2.3 0-4.6-.5-4.9-1-.3-.6-1.9-1-3.5-1-2.3 0-2.8-.4-2.3-1.6.4-1.2.1-1.5-1.3-1.2-3.3.8-7.6-2.1-15.6-10.3-4.2-4.3-8.2-7.9-8.7-7.9-.6 0-.7-.7-.4-1.7.4-1.1.3-1.4-.6-.9-.6.4-4-.5-7.4-2.1-3.4-1.6-8.5-4-11.4-5.3-3.6-1.7-5.3-3.1-5.6-4.7-.5-2.8.2-3.6 2-2.2.9.9 1.3.8 1.3 0 0-.6 1.1-1.1 2.4-1.1 1.5 0 3.3-1.1 4.5-2.6 2.3-2.9 2.7-5.4 1-5.4-.7 0-.9-1-.7-2.5.6-2.9-.6-3.4-7.2-3.6-2.5 0-6.4-.1-8.8-.2-2.7 0-4.7.4-5.2 1.2-.4.8-1.5 1.1-2.4.8-1-.4-2.6.4-4.2 2-2 2-2.8 2.3-3.4 1.3-.6-1-1.7-.8-5 .9-2.3 1.2-4.9 2.3-5.8 2.5-3 .6-7 2.4-7.7 3.7-.4.6-2.7 2-5.1 3.1-2.4 1-4.4 2.3-4.4 2.7 0 .5-1.3 1.4-3 2.1-1.6.7-3 1.6-3 2.1s-.7.6-1.5.3c-.8-.4-1.5-.1-1.5.5 0 1-6.4 5.5-8 5.6-.3.1-2.1 1.1-4 2.3-1.9 1.2-4.1 2.2-4.8 2.2-.7 0-1 .4-.7 1 .3.5.2 1-.4 1-.6 0-3.6 2.7-6.8 6-3.1 3.3-6.3 6-7 6-.7 0-1.3.7-1.3 1.7 0 .9-.3 1.4-.6 1-.3-.3-2.4.8-4.7 2.4-2.2 1.6-4.4 2.9-4.8 2.9-.4 0-2.8 1.3-5.2 3-4.6 3-8.1 3.8-9.2 2-.3-.6-1.1-1-1.6-1-.6 0-.7.4-.4 1 .3.5.1 1-.4 1-.6 0-1.1.8-1.1 1.9 0 1-.9 2.1-2 2.4-5.2 1.4-3.7 9.6 2.3 12.1 2.7 1.1 3.8 1.1 7.1-.1 4.8-1.6 4.6-1.6 4.6.2 0 .8-.7 1.5-1.5 1.5-1.8 0-2.9 4-2 7 .4 1.2 2.1 2.8 3.8 3.5 1.8.7 3.6 1.7 4 2.2.5.4 3 .8 5.7.9 2.7 0 5.6.6 6.4 1.3.8.7 1.9 1 2.5.7.5-.4 1.5 0 2.3.7.7.8 2.1 1.4 3 1.4 2 0 9.2 3.5 12.8 6.3l2.5 2h-3.1c-3.6 0-7.9 4.9-6.9 7.9.7 2.4-.4 5.1-2.2 5.1-.7 0-1.3.6-1.1 1.2.1.7-.1 2.4-.5 3.8-2.5 8.4-3.1 10-3.9 10-.4 0-.8.9-.8 1.9 0 1.1-.4 2.1-1 2.3-.5.1-1.2 2.5-1.6 5.3-.3 2.7-.9 5.9-1.4 7-1.6 3.8-3 11.4-2.4 12.9.3.9.2 1.6-.4 1.6-.5 0-.8 2.2-.7 5 .2 2.7-.1 5-.6 5-.6 0-.7 2.1-.3 4.9.3 2.7.2 5.7-.4 6.7-.8 1.6-2.6 29.1-2.5 38.1.1 1.4-.4 2-1.3 1.6-.8-.3-2.7 0-4.4.5-2 .7-3.2.7-3.6.1-.3-.6-1.2-.8-1.9-.5-.8.3-1.6 0-1.9-.7-.3-.9-.7-.9-1.3-.1-1.3 1.8-5.1 2.3-6.3.9-1.1-1.3-.9-5.1.7-14 .3-1.7.5-4.4.4-6.1-.1-1.7.6-6 1.5-9.5s1.9-8.5 2.1-11.2c.3-2.6.9-4.7 1.3-4.7s.6-1.8.3-4c-.3-2.3.1-5.9 1.1-8.9.9-2.7 1.6-6 1.6-7.3 0-1.3.9-4.8 2-7.8s2-6.5 2-7.7c0-1.3.5-2.3 1-2.3.6 0 1-1 1-2.3 0-1.3.6-2.9 1.3-3.5 1.7-1.8 2.1-8.6 1.7-30.6 0-4.5-4-10.6-6.9-10.6-2.9 0-6.4 4.5-5.7 7.3.4 1.7-.1 3.3-1.4 5-1.1 1.4-2 4-2 5.9 0 1.9-.3 3.8-.7 4.1-.3.4-.8 1.9-.9 3.4-.2 1.5-.7 2.9-1.2 3.1-.5.1-.7 2.3-.4 4.7.3 2.6 0 4.5-.5 4.5-.6 0-.8 2.1-.5 5.1.3 2.8 0 5.4-.5 5.8-1 .6-3.4 14.4-3.8 21.2-.1 1.9-.4 4-.8 4.5-.5.9-2.3 10.3-3.2 17.1-.2 1.1-.6 2.9-.9 4-.3 1-.8 4.9-1.1 8.8-.3 3.8-1.1 9.9-1.6 13.5-.6 3.6-1.1 7.2-1.3 8-.6 4.1-3.6 4.6-6.3 1.2-1.6-1.9-1.7-5.9-.2-6.4.7-.2.7-1.2 0-2.9-.6-1.6-.6-4.1-.1-6.5.5-2.2.8-9.3.8-15.9-.2-11.3.4-24.5 1.8-43 .4-4.4.7-8.6.7-9.3 0-.6.5-1.2 1-1.2s.7-1 .3-2.3c-.3-1.3-.1-5 .5-8.3.5-3.2 1.2-10 1.5-14.9.4-6.9 1-9.7 2.6-11.9 1.6-2.3 2.3-5.4 3-13.4 1-11.3.7-12.2-3.9-12.2-2.4 0-7.3 5.6-7.3 8.2 0 .9-.7 2.9-1.5 4.4-.8 1.6-1.5 3.7-1.5 4.7s-1.2 4.8-2.6 8.3c-1.4 3.5-2.7 7.9-2.9 9.7-.3 1.7-.7 4.8-1 6.7-.3 1.9-.7 5.7-1 8.5-.3 2.7-.7 6.3-.9 8-.3 1.6-.8 7.9-1.1 14-.4 6-1 11.1-1.5 11.3-.5.2-.5 1.6 0 3.2.4 1.6.4 4.6 0 6.7-.7 3-2.2 33.9-2.3 46.6 0 3.3-.9 3.4-4.9.6-2.9-2.1-7.8-8.9-7.8-10.9 0-.6-1.5-3.2-3.3-5.8-3.9-5.5-9.7-16.9-9.7-19 0-.7-.7-2.7-1.5-4.3-.8-1.6-2.2-4.3-3.1-5.9-.8-1.7-1.2-3-.9-3 .4 0-.5-1.3-1.8-3-1.4-1.7-3.1-5.5-3.8-8.7-.7-3.2-2.1-7-3.1-8.5-1-1.4-1.8-3.9-1.8-5.5 0-1.5-.5-4.7-1-6.9-.5-2.3-1.2-7.5-1.5-11.5-.3-4-.9-7.6-1.4-7.9-.7-.4-2-9.2-2.2-15.5-.1-1.1-.5-4.3-1-7-.5-2.8-1.1-9.1-1.3-14-.6-13.9-2.4-33.6-3.5-38-1.9-7.2-1.3-14.7 1.3-17.8 1.9-2.3 2.7-2.6 4.7-1.9 4.5 1.6 14.7.7 17.9-1.6 1.7-1.3 5.2-2.4 8.7-2.8 3.2-.4 6.1-1.1 6.4-1.6.4-.6 2.3-1 4.3-1.1 2-.1 3.6-.4 3.6-.7 0-.6 6.1-2.4 11.8-3.5 4.6-.9 17.2-7.7 25.1-13.5 10.9-8.1 12.1-9.1 12.1-10.6 0-.7.9-1.9 2-2.6 1.1-.7 2-1.7 2-2.2 0-.5 1.7-2.6 3.8-4.6 7.6-7.5 17.1-27.6 17.4-37 .1-2.5.6-5.3 1.1-6.4 1.4-2.8 2.4-14.7 3.2-38.1.4-11.3.1-14.2-1.9-22.5-1.3-5.2-3.1-12.4-3.9-16-.9-3.6-2.1-7.9-2.8-9.5-.7-1.7-1.3-3.5-1.4-4.1 0-.6-2.2-3.6-4.8-6.7-2.6-3-4.7-5.8-4.7-6.2 0-.7 4.6-6.3 13.1-15.8 5-5.7 7.8-9.8 9.6-14 .7-1.5 1.9-2.7 2.7-2.7.9 0 2.5-1.8 3.6-3.9 1.1-2.2 2.4-4.2 3-4.6 1.4-.9 12-22.8 12-24.8 0-1 .7-2 1.5-2.3.8-.4 1.5-1.6 1.5-2.9 0-1.3.7-2.5 1.5-2.9.8-.3 1.5-1.2 1.5-2 0-.9 1-3.5 2.3-5.8 1.3-2.4 2.9-6.3 3.6-8.8.7-2.5 1.9-6 2.7-7.8.8-1.8 1.4-4.2 1.4-5.3 0-1.1.7-3.6 1.5-5.6.9-2.1 2.2-10 2.9-17.8 1.4-15.4.7-29.2-2-39.8-.8-3.4-1.7-7.6-2-9.2-.8-6.4-1.7-9.5-2.6-9.5-.5 0-.8-.6-.5-1.3.2-.6-.4-2.3-1.3-3.7-1-1.4-1.6-3.3-1.5-4.2.2-1-.1-2-.6-2.3-1.2-.8-9.1-17.6-8.5-18.2.2-.3-1.3-2.1-3.5-4-2.1-1.9-3.9-4-3.9-4.6 0-.5-1.1-2.5-2.5-4.3-1.4-1.8-2.5-3.7-2.5-4.3 0-.6-.7-1.1-1.5-1.1s-1.5-.5-1.5-1.1c0-.5-.4-.8-.9-.5-.5.3-1.4-.8-2-2.4-.5-1.7-1.7-3.3-2.5-3.6-.8-.3-1.3-1.1-1-1.8.5-1.3-3.5-3.6-6.1-3.6-.8 0-1.5-.7-1.5-1.5s-.4-1.5-.9-1.5-3.6-2.7-6.9-6c-4.2-4.3-6.6-6-8.5-6-1.6 0-3.2-.8-3.9-2-.7-1.1-2.1-2-3.2-2s-1.6-.3-1.3-.6c.4-.4-1.5-1.7-4.1-2.9-2.6-1.2-5.3-2.9-6.1-3.8-.7-1-2-1.7-2.8-1.7-.7 0-2.5-.7-3.8-1.6-1.3-.9-3.2-1.3-4.3-1-1.1.4-2.7-.2-4.1-1.5-1.3-1.2-4-2.3-6.4-2.5-2.3-.2-5.3-.6-6.7-.8-1.4-.2-3.1-.4-3.8-.5-.7 0-1-.6-.7-1.1.4-.7-6-1-18.4-1-11.8 0-19.1.4-19.1 1zm80.9 297.5c1.6 0 1.8.4 6 10.4 2.6 5.8 3.5 10.1 4.7 21.5 1.9 17 2.3 29.9 1.2 37.5-.5 3.1-1 7.2-1.3 9.1-.2 1.9-.9 5.3-1.5 7.5-.7 2.2-1.7 7.2-2.4 11.1-.6 3.9-1.6 7.7-2.2 8.5-.7.8-1.9 3.2-2.8 5.4-.9 2.1-2.6 4.7-3.6 5.7-1.1 1.1-2 2.6-2 3.6 0 .9-1.4 3.1-3 4.9-1.7 1.8-3 3.4-3 3.7 0 1.5-14.7 15.7-16.9 16.3-1.4.3-3.2 1.2-3.9 2-.8.7-1.7 1.1-2.2.8-.4-.3-2.1.2-3.6 1-1.6.8-3.9 1.5-5.1 1.5-1.3 0-2.3.4-2.3 1 0 .5-1.9.8-4.4.6-3.3-.3-4.6-.1-5 1-.3.9-1.8 1.4-3.8 1.4-3.9-.1-12 2-13 3.5-.4.5-1 .7-1.3.4-.3-.4-2.2-.1-4.3.6-3.2 1.2-3.9 1.1-5.5-.3-1.6-1.4-1.9-1.4-3.8.7-1.2 1.2-2.8 2-3.6 1.7-.8-.3-1.1-.2-.8.3.6 1.1-4.1.8-5.2-.2-.3-.4-1.7-.7-3-.7s-2.6-.6-2.8-1.3c-1.2-3.2-2.4-46.3-1.4-49.9.4-1.7.3-2.8-.3-3-.6-.2-1.2-3.3-1.3-6.8-.1-3.6-.4-6.7-.5-7-.2-.3-.4-3.9-.5-8-.3-8.8-1.2-20.6-1.9-23.5-.3-1.1.1-4.9.8-8.4 1.1-5.3 1.1-6.8 0-9-1.6-3-1-3.7 3.1-4.5 1.7-.3 4.1-.8 5.5-1 1.4-.3 5.7-1 9.5-1.7 3.9-.6 7.5-1.5 8-1.9.6-.5 3.1-1.1 5.8-1.5 2.6-.4 4.7-1.2 4.7-1.7 0-.6.9-.8 2-.5 1.2.3 3.1-.4 4.7-1.6 1.5-1.2 3.5-2.3 4.6-2.4 1.6-.3 14-5.7 19.2-8.6 1.1-.5 4.3-2.1 7-3.4 2.8-1.3 5.5-2.7 6.2-3.1 2.1-1.3 13.8-10.2 15.8-12 1.1-1.1 3.1-2.7 4.5-3.6 2.5-1.6 2.5-1.6 3 1.1.3 1.6 1.1 2.8 1.9 2.8zm92.7 179c.3.8-.4 2.6-1.5 4.1-1.9 2.4-3.1 6.7-1.4 5.1.3-.4 1.2-.2 2 .5 1 .8 1.9.6 3.8-1.2 3.4-3.2 8.1-3.6 8.8-.9.3 1.2 1 1.8 1.5 1.5 1.4-.8 9.1 5.2 10.8 8.5.8 1.6 1.9 2.7 2.3 2.4.5-.2 2.3 1.2 4 3.2 1.7 2 3.1 3.1 3.1 2.5 0-2.7 14.3 8.8 16.8 13.5 1.6 2.9 1.6 8.5.1 6.3-.8-1.2-.9-1.1-.4.6.8 3-1.9 8.8-5.2 11-1.5 1-3.2 1.7-3.7 1.6-.5-.2-1.7.5-2.7 1.4-1.1.9-1.9 1.4-1.9 1.1 0-.4-1.9 1.4-4.1 3.8-2.3 2.5-4.8 4.5-5.5 4.5-.8 0-1.4.6-1.4 1.2 0 1.5-5.6 5.4-7.2 5-.6-.2-2.1.6-3.3 1.8-1.2 1.1-2.9 1.8-3.7 1.5-.8-.3-2.7.6-4.2 2s-3.1 2.5-3.6 2.5-1.2.9-1.5 2c-.4 1.3-1.5 2-3 2-1.3 0-2.7.5-3 1-.4.6-1 .8-1.5.5-.5-.3-1.1-.1-1.5.5-.3.5-1.3 1-2.1 1-1.6 0-6-4.1-5.7-5.3.2-.4-.4-.7-1.2-.7-.9 0-3.3-1.2-5.5-2.6-3.4-2.3-4-3.2-4-6.3 0-6.9 1.2-11.2 2.9-10.9 2.4.3 7.2-1.1 8.7-2.7 1.8-1.8 1.8-5.9-.1-7.5-.8-.7-1.5-1.9-1.5-2.7 0-.7-.8-1.6-1.7-2-1-.3-2.6-1.3-3.5-2.1-1.6-1.3-1.6-1.5.3-3.5 2.3-2.5 2.4-5 .2-8.7-1.5-2.6-2.9-3.2-9.5-4.3-1-.2-2.1-.6-2.4-1-1.5-1.5-2.4.8-2.4 6.4 0 4.6.3 5.9 1.5 5.9.8 0 1.5.4 1.5 1 0 .5.5 1 1.1 1 .6 0 1.6.6 2.4 1.3 2 2.1-1.7 4.2-4.4 2.5-2.8-1.7-6.7 2.3-8.7 9.1-1.5 5-1.5 5.6-.1 6.6 1.2.8 1.3 1.5.6 2.2-.8.8-2.6.1-6.2-2.3-2.8-1.9-5.7-3.4-6.4-3.4-.7 0-1.7-.8-2.3-1.8-.8-1.1-1.3-1.3-1.6-.5-.4.9-1.2.9-3.2.2-1.5-.6-5.4-1.5-8.7-2-3.2-.6-6.5-1.5-7.1-2-.8-.7-1.4-.6-1.9.1-.5.8-1.1.7-2.2-.1-1.1-1-1.6-1-2.3 0-.4.8-1.6 1.1-2.9.6-3-.9-2.6-2.5 1-3.2 1.7-.3 4-1.8 5.1-3.4 1.2-1.6 2.4-2.6 2.8-2.4.4.3 1.3-.2 2-1s1.8-1.5 2.6-1.5c.7 0 1.5-.9 1.9-1.9.3-1.2 1.2-1.8 2-1.5.7.3 1.8-.4 2.5-1.5.6-1.2 1.7-2.1 2.4-2.1.8 0 1.9-.7 2.6-1.5.7-.9 1.7-1.4 2.2-1.3.5.2 3.3-1.8 6.1-4.4 2.8-2.6 5.3-4.5 5.5-4.3.3.2 1-.1 1.8-.8 4-3.6 7-5.2 9.2-4.8.6.1 1.2-.5 1.2-1.3 0-.9 1.8-2.5 4-3.6s4.5-2.9 5.2-3.9c.6-1.1 1.8-1.7 2.5-1.4.7.3 1.3 0 1.3-.6s.7-.8 1.6-.4c1.1.4 1.3 1.3.9 3.3-.9 4.2 3.7 12.3 7.8 13.5 4.2 1.4 8.1.4 8.6-2 .2-1.1.8-2.3 1.4-2.7 1.6-1-.5-4.5-6-10.3-5.1-5.2-4.9-5.8 1.8-9.4 4.3-2.4 4.8-2.4 5.5-.6zm72.4 59.6c0 1.5-2 10.1-3 12.4-1.2 3.1-3.1 15.3-3.6 23.3-.2 4-.8 8.1-1.2 9-.5.9-.6 3-.2 4.7.3 1.6.2 5.5-.2 8.5-.7 5.3-.2 22.6.8 24.1.2.4 0 1.1-.6 1.4-.6.4-.8 2.1-.5 3.8.2 1.8.7 7.6 1 13 .2 5.4.9 10.5 1.3 11.5.5.9 1.2 3.1 1.5 4.9.6 2.9.4 3.3-2.8 4.4-1.9.7-3.5 1.7-3.5 2.2 0 .5-1.2.7-2.6.4-1.9-.3-3.4.3-5.7 2.4-5.8 5.3-6 5-5.7-12.1.1-8.4.3-15.8 1.3-37 .1-3 .5-6 1-6.7.4-.6.3-1.4-.3-1.8-.7-.4-.8-4.1-.3-10.8 1.2-17 1-21.2-1.1-23.6-1-1.1-2.2-1.8-2.6-1.6-.4.3-1-.2-1.4-1-.7-1.9-6-2-7.5-.2-.6.8-1.6 3.7-2.3 6.6-1 4.6-1 5.6.6 8.3 1.5 2.5 1.6 3.2.5 4-1 .7-1 1.1-.3 1.4.8.3.9 1.7.3 4.2-.4 2-1 7.7-1.4 12.7-.3 4.9-.8 11.6-1.1 14.8-.3 3.2-.7 13.8-.9 23.5-.5 20-1.7 32.6-3.4 34.6-.7.8-2.7 1.7-4.5 2-2.5.5-3.6 1.3-4 3.2-.8 3.2-2.3 2.3-3.5-2.3-.8-2.6-.7-3.9.1-4.4.6-.4.7-1.2.4-1.8-.4-.6-.2-1.1.4-1.1.7 0 .4-.7-.5-1.6-1.3-1.4-1.5-3.9-1.2-17.6.2-11.1.7-16.2 1.6-16.7.8-.6.9-1.5.2-3.3-.7-1.8-.5-5.9.6-13.5.8-5.9 1.5-12.2 1.4-13.8 0-1.7.6-6.2 1.5-10 1.6-7.7 1-13.4-2-18-1.3-2-2.4-2.4-5.1-2.2l-3.5.2v5.4c0 2.9-.9 8.3-2.1 12-3.6 11.5-3.9 12.7-3.9 15.7 0 1.6-.4 3.5-.9 4.3-.7 1.1-1.2.4-2-2.5-1.4-4.8-1.4-5.7-.1-4.9 1.5.9 1.2-.4-.5-2.1-.8-.9-1.5-2.4-1.5-3.3 0-1-.7-3.5-1.5-5.4-1.7-4.1-2-9.7-.5-9.7.5 0 .7-.8.3-1.8-.3-.9-.3-1.4.2-1 .4.4 4.6-2.2 9.3-5.8 5.6-4.3 9.2-6.4 10.4-6.1 1.1.3 1.8 0 1.8-1 0-.8.5-1.1 1-.8.6.3 1 .1 1-.4 0-.6.5-1.1 1.1-1.1.6 0 3.3-1.6 6-3.6s4.9-3.3 4.9-2.9c0 .3 1.2-.3 2.6-1.4 1.5-1.2 3.5-2.1 4.5-2.1 1.1 0 1.8-.5 1.7-1.2-.2-.6 2.8-3.1 6.7-5.4 3.8-2.3 8.1-5.6 9.5-7.3 1.4-1.7 3-3.1 3.5-3.1.6 0 2.6-1.4 4.5-3 3.6-3 6-3.8 6-1.9zm-101.2 41c3.2 3.2 5.2 4.5 5.5 3.7.3-.7.6 0 .6 1.6.1 2 1.2 3.9 3.5 6 2.8 2.6 3.5 4.2 4.6 10.6.7 4.1 1.4 12.7 1.5 19 .2 6.3.4 11.5.5 11.5 1.3 0 1.7 36.7.5 45.9l-.8 5.8-3.6-.7c-6.6-1.2-9.6-1.2-11.1 0-2.6 2.2-7.5 2.8-9 1-1.2-1.4-1.5-1.4-3.1.1-2 1.8-8.3 1.3-9.3-.9-.5-.9-.7-.9-1.2 0-.4.8-2.7 1.3-6.6 1.3-5.9 0-6 0-5.4-2.5.5-1.9.2-2.5-.9-2.5-.9 0-1.4-.4-1.1-.8.3-.5.6-5.1.7-10.3.1-5.2.6-9.9 1.1-10.5.4-.6.3-2.5-.3-4.2-.7-2.2-.8-4.2-.1-6.4.6-1.8 1-4 1-4.8 0-6.2 3.9-25.9 5.3-27 .4-.3.9-2.8 1.2-5.5.8-7 1.8-10.5 2.9-10.5.5 0 .7-.9.3-1.9-.6-1.9 1.4-9.7 4.1-15.8.8-1.7 1.4-4.3 1.4-5.7 0-1.4.5-2.6 1.1-2.6.8 0 1-1.4.6-4l-.5-4 5.8 4.6c3.2 2.5 8.1 6.8 10.8 9.5z"/><path d="M610 517.4c0 3.3.5 5.8 1.4 6.5.9.8 1.2 2.5.9 5.6-.7 5.5.4 10.6 1.8 8.4.8-1.1 1.2-1 2.8 1 1.8 2.3 6.9 4.2 5.6 2.1-.3-.6 0-1.3.9-1.6.8-.3 2.2-1.7 3.1-3.1 1.4-2.1 1.5-2.9.5-4.8-.7-1.3-1.8-2.1-2.5-1.9-2 .8-2.9-1.5-1.3-3.4 3.8-4.8 4.1-6.3 1.7-8.8-1.2-1.3-3.3-2.4-4.6-2.4-1.3 0-4-.7-6-1.5-1.9-.8-3.7-1.5-3.9-1.5-.2 0-.4 2.4-.4 5.4zM593 31.6c0 .8.5 1.2 1 .9.6-.3 1-1 1-1.6 0-.5-.4-.9-1-.9-.5 0-1 .7-1 1.6zM432.8 47.7c.7.3 1.6.2 1.9-.1.4-.3-.2-.6-1.3-.5-1.1 0-1.4.3-.6.6zM386.8 56.7c.7.3 1.6.2 1.9-.1.4-.3-.2-.6-1.3-.5-1.1 0-1.4.3-.6.6zM494.6 162c-1.5 1.9-2.6 4.4-2.6 6.1 0 1.6-.7 4.1-1.6 5.4-1.3 2-1.4 2.8-.4 4 .7.8.9 1.5.4 1.5-.4 0-.3.5.3 1.1.7.7.8 2.1.1 4.4-1.2 3.8-.3 13.3 1.5 15.5 2 2.5 8.1 6.6 9.7 6.4.8 0 2.6-.2 4-.3 1.8-.1 3.2-1.4 5-4.2 1.4-2.3 2.4-4.5 2.3-5-.2-.5 0-.9.5-.9.9 0 .9-6.6-.1-10-.3-1.4-.9-4.8-1.1-7.5-1.3-11.9-3.3-16.4-7.6-16.5-.9 0-2-.4-2.5-.9-2.7-2.4-5.3-2.1-7.9.9zM444.2 161.6c-1.3.9-3.1 1.2-4.7.8-2.2-.5-2.5-.3-2.7 2.2-.1 1.6 0 4.8.1 7.1.2 2.6-.2 4.3-.8 4.3-.6 0-1.1 1.5-1.1 3.2-.1 1.8-.7 6.4-1.4 10.1-.7 3.7-1.1 9-.8 11.8.4 4.3.9 5.2 3.1 6 1.4.6 3.3 1.7 4.2 2.5 1.5 1.3 2 1.2 5-1.6 1.8-1.6 3.7-3 4.1-3 .4 0 1.1-1.2 1.4-2.8.4-1.5 1.1-3.2 1.6-3.9.5-.6 1-6.5 1.2-13 .1-6.5.6-12.4 1-13.1.9-1.5-1.5-5.9-5.2-9.4-2.6-2.5-3-2.6-5-1.2zM421.8 231.7c-1.5.7-3.9 2.9-5.3 4.7-3.1 4.1-2.6 8.3 1.6 12 2.8 2.5 3.9 7.2 2.2 9-.5.4-.8 1.1-.9 1.4-.4 3.4-1.8 8.3-2.5 8.8-.5.3-.9 1.4-.9 2.5 0 1-.4 1.9-1 1.9-.5 0-1 .5-1 1.1 0 .6-1.1 2.4-2.5 4.1-1.4 1.6-2.5 3.5-2.5 4.2 0 .6-2 1.8-4.4 2.5l-4.4 1.3-.4 6.3-.3 6.4 5-.5c3.8-.4 5.7-1.2 8-3.4 1.9-1.9 4.2-3 5.9-3 1.5 0 2.5-.4 2.2-.9-.3-.5 1-2.3 2.9-4 1.9-1.7 3.5-3.7 3.5-4.4 0-.8.7-2.1 1.6-2.8.9-.7 2-2.4 2.5-3.7.9-2.4 1.1-2.4 8.7-1.7 4.2.4 8.5 1.1 9.5 1.6.9.6 1.7.6 1.7.2 0-.4 3.2-.9 7.2-1.1 3.9-.2 7.9-.7 8.8-1.2 1.1-.6 2.1-.5 2.7.1.8.8 1.7.5 3.2-1 1.2-1.2 3.2-2.1 4.6-2.1 1.4 0 2.5-.5 2.5-1 0-.6.6-1 1.3-1 1.2 0 6.9-6.5 7.4-8.5 1.3-4.6 1.4-7.8.3-8.5-1.5-1-6.4-.6-6.7.5-.1.9-2.7 2.5-4 2.6-.5.1-2.3.7-4.2 1.5-1.8.8-4.8 1.4-6.5 1.4-1.8 0-4.1.7-5.2 1.5-2.1 1.6-11 2-11.9.5-.3-.5-1.2-.7-1.9-.4-.7.3-3.2-.2-5.5-.9-2.3-.8-5-1.3-6.1-1-1.8.5-1.9 0-1.9-5.8.1-7.5-2.3-13.6-7-18-1.8-1.6-3.3-2.9-3.4-2.8-.1.1-1.4.8-2.9 1.6zM384.5 236.1c-1.6 1.6-3.7 3.1-4.5 3.4-1.8.7-5.1 7.5-8.3 17.2-2 6.1-2.4 9.1-2.3 19.5.1 9.6.5 13 1.9 15.7.9 1.9 1.7 4 1.7 4.6 0 1.9 8.9 11.5 10.6 11.5.8 0 3.3.9 5.5 2 3.2 1.5 4.5 1.7 5.9.8 2.6-1.7 3.3-6.8 1.5-11.1-1.2-3-2-3.7-4.3-3.7-2.2 0-3.6-1-6.1-4.5-1.8-2.5-2.7-4.5-2.1-4.5.8 0 .9-.6.5-1.8-.5-.9-.9-3.3-1.1-5.2-.1-1.9-.7-5.5-1.3-7.9-.7-2.6-.8-4.8-.3-5.5.5-.6 1.2-2.7 1.5-4.7.8-5.2 3.4-10.8 5.3-11.6 1-.4 2.6-1.5 3.6-2.5s2.5-1.8 3.4-1.8c2.8 0 5.9-3.3 5.9-6.2-.1-3.5-3-5.7-7.7-5.8-2 0-4.2-.2-5-.4-.7-.3-2.6.8-4.3 2.5zM718.5 900c.3.5.8 1 1.1 1 .2 0 .4-.5.4-1 0-.6-.5-1-1.1-1-.5 0-.7.4-.4 1z"/></svg>