<?xml version="1.0" standalone="no"?>
<!DOCTYPE svg PUBLIC "-//W3C//DTD SVG 20010904//EN"
 "http://www.w3.org/TR/2001/REC-SVG-20010904/DTD/svg10.dtd">
<svg version="1.0" xmlns="http://www.w3.org/2000/svg"
 width="936.000000pt" height="936.000000pt" viewBox="0 0 936.000000 936.000000"
 preserveAspectRatio="xMidYMid meet">
<metadata>
Created by potrace 1.11, written by Peter Selinger 2001-2013
</metadata>
<g transform="translate(0.000000,936.000000) scale(0.100000,-0.100000)"
fill="#000000" stroke="none">
<path d="M4390 9350 c0 -6 -18 -7 -45 -3 -25 3 -45 2 -45 -3 0 -5 -17 -10 -37
-12 -20 -1 -41 -7 -48 -12 -7 -6 -15 -6 -23 2 -8 8 -15 7 -26 -4 -8 -8 -38
-18 -67 -21 -29 -4 -56 -12 -61 -19 -5 -9 -8 -9 -8 -1 0 7 -18 2 -47 -13 -27
-13 -59 -24 -71 -24 -13 0 -35 -9 -49 -20 -14 -11 -40 -20 -58 -20 -18 0 -42
-9 -55 -20 -14 -12 -31 -18 -42 -14 -10 3 -18 1 -18 -5 0 -6 -7 -8 -16 -4 -9
3 -21 -3 -30 -16 -8 -11 -22 -21 -30 -21 -8 0 -26 -12 -41 -26 -14 -14 -31
-23 -39 -20 -7 3 -16 1 -20 -5 -3 -6 -12 -8 -20 -5 -8 3 -22 -3 -31 -14 -10
-11 -32 -25 -50 -31 -18 -6 -33 -15 -33 -20 0 -5 -6 -9 -14 -9 -7 0 -19 -7
-26 -15 -7 -8 -19 -15 -27 -15 -15 0 -31 -12 -68 -47 -12 -13 -26 -23 -30 -23
-4 0 -19 -8 -33 -19 -15 -10 -42 -22 -59 -26 -19 -4 -33 -13 -33 -21 0 -9 -4
-12 -10 -9 -5 3 -10 1 -10 -4 0 -6 -5 -11 -11 -11 -6 0 -17 -6 -24 -12 -31
-28 -44 -38 -51 -38 -3 0 -15 -11 -26 -25 -11 -14 -23 -23 -27 -20 -5 2 -16
-4 -26 -15 -10 -11 -24 -20 -30 -20 -7 0 -20 -11 -29 -25 -9 -14 -22 -25 -29
-23 -7 1 -28 -13 -48 -32 -51 -49 -66 -60 -73 -53 -3 3 -8 -2 -12 -11 -4 -11
-13 -15 -26 -10 -17 5 -19 3 -13 -15 5 -17 0 -23 -22 -33 -15 -6 -32 -12 -38
-12 -5 -1 -27 -20 -48 -43 -26 -28 -44 -40 -54 -36 -10 4 -14 2 -10 -4 7 -11
-62 -73 -80 -73 -5 0 -17 -13 -26 -30 -10 -16 -25 -30 -32 -30 -8 0 -42 -27
-76 -60 -33 -33 -65 -58 -70 -54 -5 3 -9 -1 -9 -10 0 -12 -50 -58 -138 -126
-11 -8 -23 -30 -26 -48 l-6 -33 40 3 c22 1 40 5 40 9 0 4 17 18 38 30 20 13
39 26 42 30 3 3 21 14 40 24 19 10 60 37 90 60 30 24 69 50 85 58 17 9 49 33
73 55 23 22 42 38 42 35 0 -3 9 6 21 21 11 14 26 26 32 26 11 0 124 84 175
129 12 11 22 18 22 15 0 -3 19 8 42 25 22 17 44 28 48 26 4 -3 10 3 12 13 3 9
18 24 34 32 16 8 41 27 56 43 15 15 34 27 43 27 9 0 18 6 21 13 3 8 19 24 35
36 29 22 31 22 44 4 14 -17 14 -17 15 2 0 19 52 75 70 75 5 0 10 -6 13 -12 2
-8 10 -2 17 14 7 14 35 39 64 54 28 16 60 34 71 41 27 17 68 33 79 32 5 0 13
6 18 15 5 9 16 16 23 16 8 0 14 3 12 8 -1 4 0 8 3 9 3 1 28 13 55 27 37 17 55
21 68 14 15 -8 20 -5 24 12 5 18 11 21 37 17 26 -4 34 -1 42 16 11 26 32 29
57 9 21 -18 35 -8 18 12 -10 12 -5 19 29 41 22 14 45 23 50 20 5 -3 11 -1 14
4 4 5 30 17 59 26 28 10 56 21 61 26 6 5 20 9 32 9 12 0 25 6 27 13 4 9 6 8 6
-2 1 -11 4 -11 16 -1 8 6 20 10 27 7 7 -2 20 1 28 8 8 7 31 16 50 19 19 3 59
10 87 16 29 7 100 12 158 13 58 1 105 5 105 8 0 8 154 4 166 -4 5 -3 36 -6 69
-6 55 -1 125 -18 141 -34 4 -4 17 -7 29 -7 13 0 28 -7 35 -15 7 -8 21 -15 31
-15 11 0 19 -4 19 -10 0 -5 9 -10 20 -10 11 0 23 -6 26 -14 3 -8 12 -12 20 -9
7 3 16 -2 20 -10 3 -9 18 -19 33 -22 16 -3 37 -15 49 -25 11 -10 22 -16 25
-14 3 3 8 -4 12 -15 3 -12 13 -21 21 -21 24 0 74 -42 74 -62 0 -10 5 -15 13
-12 8 3 30 -12 49 -34 19 -21 51 -51 71 -66 28 -21 37 -36 37 -57 0 -16 5 -29
10 -29 6 0 10 4 10 10 0 5 7 7 15 4 8 -4 15 -10 15 -15 0 -4 14 -28 30 -52 17
-25 30 -52 30 -61 0 -14 21 -43 58 -82 6 -7 12 -18 12 -24 0 -6 6 -21 14 -33
8 -12 17 -38 21 -57 4 -19 15 -46 25 -60 18 -27 29 -64 35 -120 4 -46 10 -68
18 -76 11 -12 8 -72 -4 -80 -8 -4 -7 -9 2 -15 24 -14 13 -374 -12 -421 -5 -9
-11 -32 -13 -51 -6 -44 -32 -107 -44 -107 -6 0 -13 -21 -17 -47 -4 -27 -14
-56 -22 -65 -8 -9 -12 -21 -8 -27 7 -13 -23 -81 -36 -81 -5 0 -9 -7 -9 -16 0
-9 -14 -39 -30 -66 -17 -27 -33 -63 -37 -79 -3 -16 -14 -34 -24 -39 -10 -6
-30 -33 -45 -60 -17 -32 -33 -49 -41 -46 -8 3 -13 -2 -13 -15 0 -23 -48 -99
-63 -99 -6 0 -8 -3 -5 -6 4 -3 -10 -21 -31 -39 -20 -19 -43 -46 -51 -62 -17
-31 -61 -76 -111 -112 -19 -13 -52 -46 -74 -72 -35 -42 -159 -139 -179 -139
-3 0 -25 -13 -48 -30 -22 -16 -47 -30 -55 -30 -8 0 -23 -9 -35 -20 -12 -11
-32 -20 -44 -20 -12 0 -24 -5 -26 -12 -4 -11 -29 -20 -60 -19 -10 0 -18 -4
-18 -9 0 -5 -15 -14 -34 -20 -19 -6 -39 -17 -45 -24 -6 -8 -28 -16 -49 -20
-21 -3 -52 -13 -70 -21 -17 -9 -48 -18 -69 -19 -21 -2 -65 -9 -98 -16 -98 -19
-122 -21 -305 -21 -123 0 -197 4 -248 15 -40 9 -88 16 -106 16 -19 0 -39 7
-47 16 -7 8 -21 13 -31 11 -10 -3 -18 -2 -18 1 0 4 -14 15 -31 24 -19 11 -29
24 -27 35 2 15 -4 18 -35 18 -29 1 -44 8 -72 37 -19 20 -42 53 -51 74 -9 22
-19 33 -23 26 -12 -20 -79 12 -122 58 -45 48 -112 182 -129 257 -6 27 -15 56
-21 65 -12 23 -13 59 -11 262 1 93 7 187 14 210 6 22 11 47 9 53 -1 7 11 59
28 115 16 57 32 119 36 138 4 19 15 53 25 75 9 22 23 55 30 73 7 17 17 32 22
32 5 0 6 5 3 10 -7 12 48 135 65 145 6 3 10 14 10 24 0 10 11 30 25 45 14 15
25 32 25 38 0 7 23 44 50 84 28 40 50 79 50 88 0 8 9 21 20 29 11 7 33 31 49
53 16 21 52 63 80 92 28 30 51 58 51 63 0 5 5 9 11 9 6 0 29 20 51 45 22 25
44 45 50 45 5 0 16 6 23 13 29 25 43 35 83 61 23 14 42 30 42 35 0 5 18 12 40
16 22 4 42 11 46 16 9 15 74 39 104 39 15 0 33 6 39 14 7 8 21 12 33 8 14 -3
26 1 34 13 10 14 17 15 27 7 10 -8 30 -7 77 4 59 14 90 14 200 0 20 -3 47 -9
62 -15 14 -5 35 -7 47 -4 12 3 21 1 21 -6 0 -6 9 -11 20 -11 11 0 20 -3 20 -7
0 -5 11 -9 24 -9 13 -1 55 -17 92 -35 78 -39 209 -161 220 -206 4 -16 11 -30
15 -34 5 -3 18 -39 29 -80 12 -40 25 -87 30 -103 6 -18 6 -36 0 -47 -6 -10
-10 -25 -10 -35 0 -16 1 -16 18 -1 19 18 32 14 32 -9 0 -8 -6 -11 -17 -7 -11
4 -14 3 -9 -5 4 -7 13 -12 21 -12 16 0 57 54 48 64 -3 3 -1 6 5 6 6 0 18 26
27 57 21 71 15 122 -27 224 -25 62 -45 92 -109 159 -44 46 -79 87 -79 91 0 5
-7 9 -15 9 -17 0 -56 20 -66 34 -4 5 -11 6 -17 2 -5 -3 -16 1 -23 10 -15 19
-82 54 -103 54 -7 0 -16 6 -19 14 -3 9 -15 12 -31 9 -17 -4 -26 -1 -26 7 0 7
-7 10 -15 6 -8 -3 -15 -1 -15 5 0 6 -7 9 -15 5 -13 -4 -39 1 -95 21 -15 5
-198 5 -235 0 -11 -2 -26 -6 -32 -10 -6 -4 -15 -3 -18 3 -5 8 -11 8 -21 0 -7
-7 -19 -10 -26 -8 -7 3 -27 -1 -45 -8 -21 -9 -33 -10 -35 -3 -5 14 -38 0 -38
-16 0 -8 -7 -11 -18 -8 -10 2 -31 -3 -47 -11 -17 -9 -35 -16 -41 -16 -6 0 -17
-7 -24 -15 -7 -8 -21 -15 -31 -15 -11 0 -19 -4 -19 -10 0 -5 -18 -13 -39 -16
-23 -4 -51 -18 -68 -34 -15 -15 -43 -31 -60 -34 -18 -4 -33 -12 -33 -16 0 -13
-60 -80 -72 -80 -5 0 -28 -20 -51 -43 -23 -24 -54 -52 -69 -61 -16 -10 -28
-25 -28 -34 0 -14 -58 -95 -107 -148 -13 -14 -23 -29 -23 -34 0 -6 -4 -10 -9
-10 -5 0 -13 -12 -19 -27 -5 -16 -23 -45 -40 -66 -17 -21 -34 -47 -37 -58 -4
-10 -10 -19 -14 -19 -4 0 -16 -19 -26 -42 -9 -24 -23 -55 -31 -70 -8 -14 -14
-33 -14 -41 0 -8 -6 -20 -13 -26 -8 -6 -25 -38 -38 -71 -13 -33 -27 -60 -32
-60 -4 0 -5 -4 -2 -10 3 -5 1 -10 -4 -10 -6 0 -11 -7 -11 -15 0 -8 -6 -29 -14
-47 -8 -18 -19 -51 -24 -73 -6 -22 -18 -67 -27 -100 -9 -33 -21 -80 -26 -105
-4 -25 -15 -74 -24 -110 -28 -119 -45 -354 -31 -440 2 -14 9 -59 16 -100 6
-41 16 -83 21 -92 5 -10 9 -27 9 -39 0 -26 57 -158 80 -184 9 -11 20 -27 23
-35 21 -57 221 -245 299 -280 14 -7 28 -20 31 -30 3 -13 11 -16 31 -13 30 6
56 -11 56 -38 0 -26 16 -32 35 -13 14 15 23 15 76 4 33 -7 72 -22 86 -33 14
-12 28 -16 31 -10 6 8 59 11 72 3 3 -1 41 -4 85 -6 105 -6 105 -6 105 -16 0
-5 -5 -18 -10 -28 -7 -12 -7 -28 0 -44 10 -28 39 -34 84 -16 34 13 39 -6 30
-117 -7 -95 -7 -126 2 -218 7 -82 12 -158 19 -300 3 -66 5 -123 6 -125 1 -8 8
-118 13 -215 2 -49 7 -107 11 -127 6 -31 5 -38 -9 -38 -9 0 -24 -8 -34 -18
-27 -26 -69 -45 -86 -39 -8 3 -22 -1 -31 -9 -8 -9 -15 -13 -15 -10 0 3 -9 -3
-20 -14 -11 -11 -19 -22 -17 -25 1 -2 -19 -26 -46 -53 -26 -26 -44 -51 -41
-55 4 -4 2 -7 -4 -7 -7 0 -12 -6 -12 -14 0 -8 -10 -16 -22 -18 -13 -2 -27 -13
-33 -25 -5 -13 -14 -23 -19 -23 -16 0 -68 -64 -89 -110 -11 -25 -27 -50 -36
-57 -9 -7 -12 -13 -7 -13 5 0 2 -8 -6 -17 -15 -17 -68 -123 -68 -136 0 -3 -14
-30 -31 -59 -18 -29 -35 -66 -40 -83 -4 -16 -15 -56 -23 -89 -33 -121 -48
-438 -24 -521 5 -16 11 -46 14 -65 3 -19 9 -39 14 -44 4 -4 6 -15 3 -22 -3 -8
1 -14 11 -14 11 0 16 -9 16 -32 0 -21 13 -51 36 -83 19 -27 43 -61 52 -75 51
-75 185 -206 233 -228 39 -19 97 -67 220 -181 43 -41 97 -86 118 -100 21 -14
50 -40 65 -58 15 -18 53 -44 84 -60 31 -15 62 -34 69 -43 9 -12 14 -13 24 -3
7 7 21 13 31 13 14 0 18 8 18 40 0 22 -4 40 -8 40 -5 0 -14 11 -20 25 -7 14
-18 25 -25 23 -8 -2 -67 49 -133 113 -65 64 -139 134 -163 155 -25 22 -58 52
-74 68 -15 16 -36 30 -45 31 -23 2 -70 32 -109 69 -17 17 -37 36 -45 42 -7 6
-27 27 -45 47 -18 19 -38 39 -46 44 -21 12 -127 174 -127 194 0 10 -4 20 -9
23 -4 3 -11 25 -14 48 -4 24 -11 63 -16 88 -14 68 -2 292 21 395 29 130 45
180 89 272 21 45 39 85 39 88 0 4 16 25 35 48 19 22 35 45 35 50 0 5 18 29 40
53 22 24 40 47 40 52 0 4 18 21 40 38 22 16 40 34 40 40 0 7 11 15 24 18 13 3
26 14 28 24 4 14 12 18 34 15 22 -3 38 4 69 31 22 20 45 34 50 33 6 -2 13 -60
17 -128 4 -68 16 -160 25 -204 10 -44 18 -124 19 -177 1 -81 6 -160 19 -303 6
-58 38 -268 50 -325 8 -36 17 -81 20 -100 4 -19 22 -68 41 -108 19 -40 34 -83
34 -96 0 -13 6 -29 14 -35 8 -7 17 -23 20 -37 4 -15 14 -38 24 -52 9 -13 18
-34 19 -46 2 -12 12 -40 23 -63 11 -24 20 -47 20 -53 0 -5 4 -10 9 -10 5 0 14
-15 21 -33 7 -17 30 -57 50 -87 20 -30 42 -70 49 -88 11 -27 67 -82 169 -168
13 -11 22 -30 22 -46 0 -16 5 -28 11 -28 8 0 10 -12 6 -36 -5 -31 -2 -39 26
-64 20 -18 36 -25 42 -19 17 17 47 9 76 -22 24 -26 32 -29 44 -19 8 7 15 9 15
4 0 -4 6 0 13 9 10 14 26 16 95 14 45 -2 82 0 82 5 0 4 20 8 45 8 26 0 45 -5
45 -11 0 -6 9 -9 20 -6 11 3 23 1 26 -4 3 -5 9 -7 14 -4 5 3 16 -2 24 -11 9
-9 23 -13 32 -10 8 3 34 -5 57 -17 23 -13 48 -22 54 -20 7 3 30 -6 50 -19 21
-12 43 -22 49 -20 6 1 19 -7 29 -18 10 -11 23 -20 28 -20 6 0 33 -11 62 -25
44 -22 84 -60 140 -133 5 -8 20 -24 33 -37 12 -12 22 -29 22 -37 0 -8 4 -18 8
-24 4 -5 23 -45 41 -89 19 -44 41 -98 51 -120 28 -64 53 -192 45 -231 -3 -20
-2 -41 3 -47 12 -16 36 -201 29 -227 -3 -11 -1 -23 5 -26 7 -4 8 -36 3 -88
-12 -142 -26 -350 -26 -383 1 -18 -3 -33 -8 -33 -5 0 -9 -20 -9 -45 -1 -25 -6
-54 -12 -65 -6 -10 -9 -23 -8 -27 2 -9 -11 -143 -19 -188 -9 -53 -3 -99 16
-125 24 -34 52 -36 80 -6 19 20 22 31 16 53 -13 46 -14 74 -4 67 6 -3 7 4 3
20 -5 20 -3 25 8 21 8 -3 15 0 15 7 2 41 25 163 31 168 4 3 7 15 8 28 2 64 5
83 12 78 5 -3 6 9 4 26 -3 21 -1 29 7 24 7 -5 9 -1 5 8 -3 9 -3 24 1 34 9 19
20 281 19 452 -1 130 -6 187 -30 292 -9 40 -20 96 -24 123 -8 50 -74 265 -91
297 -5 10 -9 25 -9 34 0 10 -11 32 -25 50 -14 18 -25 38 -25 44 0 17 -96 115
-175 180 -60 48 -131 92 -255 157 -14 7 -34 13 -45 13 -28 0 -65 11 -65 19 0
3 16 6 35 5 19 -1 39 4 46 12 15 18 82 17 133 -1 21 -7 44 -11 51 -9 7 3 29
-4 49 -15 20 -12 51 -21 69 -22 61 -2 119 -21 112 -37 -3 -8 3 -21 15 -29 11
-8 18 -18 16 -22 -3 -4 -1 -13 4 -21 8 -13 13 -13 30 -2 21 13 78 16 133 9 16
-3 49 -19 73 -36 25 -17 49 -31 55 -31 16 0 232 -222 253 -261 10 -19 29 -45
41 -59 13 -14 26 -41 29 -60 4 -19 9 -48 13 -65 3 -16 13 -39 23 -50 9 -11 21
-33 24 -50 4 -16 14 -43 21 -60 12 -26 16 -55 25 -165 1 -8 6 -37 10 -65 23
-129 49 -306 54 -365 9 -129 19 -201 27 -206 5 -3 9 -10 9 -15 0 -6 -4 -7 -10
-4 -5 3 -10 1 -10 -4 0 -6 4 -11 8 -11 5 0 9 -6 9 -13 0 -7 18 -52 41 -100 23
-47 42 -91 42 -97 0 -6 4 -9 9 -6 5 4 22 -7 38 -23 16 -15 39 -31 51 -35 12
-4 22 -11 22 -16 0 -4 19 -6 42 -3 24 4 39 2 35 -3 -3 -5 2 -10 11 -11 9 -1
29 -3 45 -6 15 -2 27 -1 27 3 0 4 11 5 25 2 14 -2 25 -9 25 -16 0 -8 2 -8 8 1
4 6 20 15 36 19 19 5 27 3 22 -4 -4 -6 2 -8 14 -5 11 3 20 9 20 14 0 5 7 6 15
3 11 -4 15 1 15 17 0 17 3 20 9 11 7 -11 10 -10 15 3 8 23 8 27 -3 20 -5 -3
-17 5 -26 17 -10 15 -18 19 -23 12 -10 -16 -140 -18 -158 -3 -8 6 -17 9 -21 6
-16 -17 -167 88 -158 111 3 8 0 21 -7 29 -6 8 -13 22 -14 31 -1 10 -9 49 -17
87 -9 39 -18 99 -20 135 -3 36 -7 72 -10 80 -3 8 -8 38 -11 65 -18 185 -26
258 -32 267 -4 6 -1 14 6 18 8 5 9 13 2 26 -15 28 -43 128 -58 204 -6 36 -20
92 -29 125 -10 33 -18 67 -19 75 -1 8 -10 32 -19 54 -9 21 -17 44 -17 51 0 7
-7 15 -15 19 -8 3 -15 12 -15 20 0 7 -7 17 -16 20 -9 3 -14 13 -11 20 10 25
-108 155 -140 156 -7 0 -13 6 -13 13 0 17 -122 135 -178 172 -40 26 -42 29
-29 49 8 12 20 21 27 21 8 0 26 12 41 28 35 34 45 34 52 -1 8 -41 45 -82 72
-82 13 0 26 4 30 10 3 5 12 7 19 4 10 -4 12 2 9 20 -3 15 -1 26 6 26 5 0 8 7
5 15 -4 8 -3 23 1 33 4 9 7 31 6 48 -2 24 5 39 26 58 15 14 35 26 44 26 9 0
33 16 53 35 41 38 75 46 72 18 -1 -12 7 -19 22 -21 13 -2 26 -10 29 -18 3 -9
9 -11 17 -5 6 5 24 9 40 9 15 0 31 4 35 9 3 6 19 14 36 20 28 9 30 14 40 81 6
40 8 72 3 72 -4 0 -8 12 -8 26 0 14 -7 32 -15 40 -8 9 -16 32 -17 52 -3 63 -5
76 -15 102 -7 16 -7 27 -1 31 6 4 5 8 -3 11 -24 8 -15 510 9 527 12 9 12 51 1
51 -6 0 -8 4 -4 10 3 5 8 39 10 76 3 37 9 70 14 73 5 3 12 27 16 53 4 26 13
49 21 52 9 3 14 21 14 50 0 25 4 47 9 51 5 3 13 36 16 73 4 37 14 79 23 93 18
31 10 71 -18 99 -11 11 -20 25 -20 30 0 6 -8 10 -19 10 -10 0 -24 7 -31 15 -8
9 -29 15 -56 15 -23 0 -46 5 -49 10 -3 6 -19 10 -35 10 -23 0 -28 4 -23 16 4
12 1 15 -13 12 -33 -8 -76 21 -156 103 -42 43 -82 79 -87 79 -6 0 -7 7 -4 17
4 11 3 14 -6 9 -6 -4 -40 5 -74 21 -34 16 -85 40 -114 53 -36 17 -53 31 -56
47 -5 28 2 36 20 22 9 -9 13 -8 13 0 0 6 11 11 24 11 15 0 33 11 45 26 23 29
27 54 10 54 -7 0 -9 10 -7 25 6 29 -6 34 -72 36 -25 0 -64 1 -88 2 -27 0 -47
-4 -52 -12 -4 -8 -15 -11 -24 -8 -10 4 -26 -4 -42 -20 -20 -20 -28 -23 -34
-13 -6 10 -17 8 -50 -9 -23 -12 -49 -23 -58 -25 -30 -6 -70 -24 -77 -37 -4 -6
-27 -20 -51 -31 -24 -10 -44 -23 -44 -27 0 -5 -13 -14 -30 -21 -16 -7 -30 -16
-30 -21 0 -5 -7 -6 -15 -3 -8 4 -15 1 -15 -5 0 -10 -64 -55 -80 -56 -3 -1 -21
-11 -40 -23 -19 -12 -41 -22 -48 -22 -7 0 -10 -4 -7 -10 3 -5 2 -10 -4 -10 -6
0 -36 -27 -68 -60 -31 -33 -63 -60 -70 -60 -7 0 -13 -7 -13 -17 0 -9 -3 -14
-6 -10 -3 3 -24 -8 -47 -24 -22 -16 -44 -29 -48 -29 -4 0 -28 -13 -52 -30 -46
-30 -81 -38 -92 -20 -3 6 -11 10 -16 10 -6 0 -7 -4 -4 -10 3 -5 1 -10 -4 -10
-6 0 -11 -8 -11 -19 0 -10 -9 -21 -20 -24 -52 -14 -37 -96 23 -121 27 -11 38
-11 71 1 48 16 46 16 46 -2 0 -8 -7 -15 -15 -15 -18 0 -29 -40 -20 -70 4 -12
21 -28 38 -35 18 -7 36 -17 40 -22 5 -4 30 -8 57 -9 27 0 56 -6 64 -13 8 -7
19 -10 25 -7 5 4 15 0 23 -7 7 -8 21 -14 30 -14 20 0 92 -35 128 -63 l25 -20
-31 0 c-36 0 -79 -49 -69 -79 7 -24 -4 -51 -22 -51 -7 0 -13 -6 -11 -12 1 -7
-1 -24 -5 -38 -25 -84 -31 -100 -39 -100 -4 0 -8 -9 -8 -19 0 -11 -4 -21 -10
-23 -5 -1 -12 -25 -16 -53 -3 -27 -9 -59 -14 -70 -16 -38 -30 -114 -24 -129 3
-9 2 -16 -4 -16 -5 0 -8 -22 -7 -50 2 -27 -1 -50 -6 -50 -6 0 -7 -21 -3 -49 3
-27 2 -57 -4 -67 -8 -16 -26 -291 -25 -381 1 -14 -4 -20 -13 -16 -8 3 -27 0
-44 -5 -20 -7 -32 -7 -36 -1 -3 6 -12 8 -19 5 -8 -3 -16 0 -19 7 -3 9 -7 9
-13 1 -13 -18 -51 -23 -63 -9 -11 13 -9 51 7 140 3 17 5 44 4 61 -1 17 6 60
15 95 9 35 19 85 21 112 3 26 9 47 13 47 4 0 6 18 3 40 -3 23 1 59 11 89 9 27
16 60 16 73 0 13 9 48 20 78 11 30 20 65 20 77 0 13 5 23 10 23 6 0 10 10 10
23 0 13 6 29 13 35 17 18 21 86 17 306 0 45 -40 106 -69 106 -29 0 -64 -45
-57 -73 4 -17 -1 -33 -14 -50 -11 -14 -20 -40 -20 -59 0 -19 -3 -38 -7 -41 -3
-4 -8 -19 -9 -34 -2 -15 -7 -29 -12 -31 -5 -1 -7 -23 -4 -47 3 -26 0 -45 -5
-45 -6 0 -8 -21 -5 -51 3 -28 0 -54 -5 -58 -10 -6 -34 -144 -38 -212 -1 -19
-4 -40 -8 -45 -5 -9 -23 -103 -32 -171 -2 -11 -6 -29 -9 -40 -3 -10 -8 -49
-11 -88 -3 -38 -11 -99 -16 -135 -6 -36 -11 -72 -13 -80 -6 -41 -36 -46 -63
-12 -16 19 -17 59 -2 64 7 2 7 12 0 29 -6 16 -6 41 -1 65 5 22 8 93 8 159 -2
113 4 245 18 430 4 44 7 86 7 93 0 6 5 12 10 12 5 0 7 10 3 23 -3 13 -1 50 5
83 5 32 12 100 15 149 4 69 10 97 26 119 16 23 23 54 30 134 10 113 7 122 -39
122 -24 0 -73 -56 -73 -82 0 -9 -7 -29 -15 -44 -8 -16 -15 -37 -15 -47 0 -10
-12 -48 -26 -83 -14 -35 -27 -79 -29 -97 -3 -17 -7 -48 -10 -67 -3 -19 -7 -57
-10 -85 -3 -27 -7 -63 -9 -80 -3 -16 -8 -79 -11 -140 -4 -60 -10 -111 -15
-113 -5 -2 -5 -16 0 -32 4 -16 4 -46 0 -67 -7 -30 -22 -339 -23 -466 0 -33 -9
-34 -49 -6 -29 21 -78 89 -78 109 0 6 -15 32 -33 58 -39 55 -97 169 -97 190 0
7 -7 27 -15 43 -8 16 -22 43 -31 59 -8 17 -12 30 -9 30 4 0 -5 13 -18 30 -14
17 -31 55 -38 87 -7 32 -21 70 -31 85 -10 14 -18 39 -18 55 0 15 -5 47 -10 69
-5 23 -12 75 -15 115 -3 40 -9 76 -14 79 -7 4 -20 92 -22 155 -1 11 -5 43 -10
70 -5 28 -11 91 -13 140 -6 139 -24 336 -35 380 -19 72 -13 147 13 178 19 23
27 26 47 19 45 -16 147 -7 179 16 17 13 52 24 87 28 32 4 61 11 64 16 4 6 23
10 43 11 20 1 36 4 36 7 0 6 61 24 118 35 46 9 172 77 251 135 109 81 121 91
121 106 0 7 9 19 20 26 11 7 20 17 20 22 0 5 17 26 38 46 76 75 171 276 174
370 1 25 6 53 11 64 14 28 24 147 32 381 4 113 1 142 -19 225 -13 52 -31 124
-39 160 -9 36 -21 79 -28 95 -7 17 -13 35 -14 41 0 6 -22 36 -48 67 -26 30
-47 58 -47 62 0 7 46 63 131 158 50 57 78 98 96 140 7 15 19 27 27 27 9 0 25
18 36 39 11 22 24 42 30 46 14 9 120 228 120 248 0 10 7 20 15 23 8 4 15 16
15 29 0 13 7 25 15 29 8 3 15 12 15 20 0 9 10 35 23 58 13 24 29 63 36 88 7
25 19 60 27 78 8 18 14 42 14 53 0 11 7 36 15 56 9 21 22 100 29 178 14 154 7
292 -20 398 -8 34 -17 76 -20 92 -8 64 -17 95 -26 95 -5 0 -8 6 -5 13 2 6 -4
23 -13 37 -10 14 -16 33 -15 42 2 10 -1 20 -6 23 -12 8 -91 176 -85 182 2 3
-13 21 -35 40 -21 19 -39 40 -39 46 0 5 -11 25 -25 43 -14 18 -25 37 -25 43 0
6 -7 11 -15 11 -8 0 -15 5 -15 11 0 5 -4 8 -9 5 -5 -3 -14 8 -20 24 -5 17 -17
33 -25 36 -8 3 -13 11 -10 18 5 13 -35 36 -61 36 -8 0 -15 7 -15 15 0 8 -4 15
-9 15 -5 0 -36 27 -69 60 -42 43 -66 60 -85 60 -16 0 -32 8 -39 20 -7 11 -21
20 -32 20 -11 0 -16 3 -13 6 4 4 -15 17 -41 29 -26 12 -53 29 -61 38 -7 10
-20 17 -28 17 -7 0 -25 7 -38 16 -13 9 -32 13 -43 10 -11 -4 -27 2 -41 15 -13
12 -40 23 -64 25 -23 2 -53 6 -67 8 -14 2 -31 4 -38 5 -7 0 -10 6 -7 11 4 7
-60 10 -184 10 -118 0 -191 -4 -191 -10z m809 -2975 c16 0 18 -4 60 -104 26
-58 35 -101 47 -215 19 -170 23 -299 12 -375 -5 -31 -10 -72 -13 -91 -2 -19
-9 -53 -15 -75 -7 -22 -17 -72 -24 -111 -6 -39 -16 -77 -22 -85 -7 -8 -19 -32
-28 -54 -9 -21 -26 -47 -36 -57 -11 -11 -20 -26 -20 -36 0 -9 -14 -31 -30 -49
-17 -18 -30 -34 -30 -37 0 -15 -147 -157 -169 -163 -14 -3 -32 -12 -39 -20 -8
-7 -17 -11 -22 -8 -4 3 -21 -2 -36 -10 -16 -8 -39 -15 -51 -15 -13 0 -23 -4
-23 -10 0 -5 -19 -8 -44 -6 -33 3 -46 1 -50 -10 -3 -9 -18 -14 -38 -14 -39 1
-120 -20 -130 -35 -4 -5 -10 -7 -13 -4 -3 4 -22 1 -43 -6 -32 -12 -39 -11 -55
3 -16 14 -19 14 -38 -7 -12 -12 -28 -20 -36 -17 -8 3 -11 2 -8 -3 6 -11 -41
-8 -52 2 -3 4 -17 7 -30 7 -13 0 -26 6 -28 13 -12 32 -24 463 -14 499 4 17 3
28 -3 30 -6 2 -12 33 -13 68 -1 36 -4 67 -5 70 -2 3 -4 39 -5 80 -3 88 -12
206 -19 235 -3 11 1 49 8 84 11 53 11 68 0 90 -16 30 -10 37 31 45 17 3 41 8
55 10 14 3 57 10 95 17 39 6 75 15 80 19 6 5 31 11 58 15 26 4 47 12 47 17 0
6 9 8 20 5 12 -3 31 4 47 16 15 12 35 23 46 24 16 3 140 57 192 86 11 5 43 21
70 34 28 13 55 27 62 31 21 13 138 102 158 120 11 11 31 27 45 36 25 16 25 16
30 -11 3 -16 11 -28 19 -28z m927 -1790 c3 -8 -4 -26 -15 -41 -19 -24 -31 -67
-14 -51 3 4 12 2 20 -5 10 -8 19 -6 38 12 34 32 81 36 88 9 3 -12 10 -18 15
-15 14 8 91 -52 108 -85 8 -16 19 -27 23 -24 5 2 23 -12 40 -32 17 -20 31 -31
31 -25 0 27 143 -88 168 -135 16 -29 16 -85 1 -63 -8 12 -9 11 -4 -6 8 -30
-19 -88 -52 -110 -15 -10 -32 -17 -37 -16 -5 2 -17 -5 -27 -14 -11 -9 -19 -14
-19 -11 0 4 -19 -14 -41 -38 -23 -25 -48 -45 -55 -45 -8 0 -14 -6 -14 -12 0
-15 -56 -54 -72 -50 -6 2 -21 -6 -33 -18 -12 -11 -29 -18 -37 -15 -8 3 -27 -6
-42 -20 -15 -14 -31 -25 -36 -25 -5 0 -12 -9 -15 -20 -4 -13 -15 -20 -30 -20
-13 0 -27 -5 -30 -10 -4 -6 -10 -8 -15 -5 -5 3 -11 1 -15 -5 -3 -5 -13 -10
-21 -10 -16 0 -60 41 -57 53 2 4 -4 7 -12 7 -9 0 -33 12 -55 26 -34 23 -40 32
-40 63 0 69 12 112 29 109 24 -3 72 11 87 27 18 18 18 59 -1 75 -8 7 -15 19
-15 27 0 7 -8 16 -17 20 -10 3 -26 13 -35 21 -16 13 -16 15 3 35 23 25 24 50
2 87 -15 26 -29 32 -95 43 -10 2 -21 6 -24 10 -15 15 -24 -8 -24 -64 0 -46 3
-59 15 -59 8 0 15 -4 15 -10 0 -5 5 -10 11 -10 6 0 16 -6 24 -13 20 -21 -17
-42 -44 -25 -28 17 -67 -23 -87 -91 -15 -50 -15 -56 -1 -66 12 -8 13 -15 6
-22 -8 -8 -26 -1 -62 23 -28 19 -57 34 -64 34 -7 0 -17 8 -23 18 -8 11 -13 13
-16 5 -4 -9 -12 -9 -32 -2 -15 6 -54 15 -87 20 -32 6 -65 15 -71 20 -8 7 -14
6 -19 -1 -5 -8 -11 -7 -22 1 -11 10 -16 10 -23 0 -4 -8 -16 -11 -29 -6 -30 9
-26 25 10 32 17 3 40 18 51 34 12 16 24 26 28 24 4 -3 13 2 20 10 7 8 18 15
26 15 7 0 15 9 19 19 3 12 12 18 20 15 7 -3 18 4 25 15 6 12 17 21 24 21 8 0
19 7 26 15 7 9 17 14 22 13 5 -2 33 18 61 44 28 26 53 45 55 43 3 -2 10 1 18
8 40 36 70 52 92 48 6 -1 12 5 12 13 0 9 18 25 40 36 22 11 45 29 52 39 6 11
18 17 25 14 7 -3 13 0 13 6 0 6 7 8 16 4 11 -4 13 -13 9 -33 -9 -42 37 -123
78 -135 42 -14 81 -4 86 20 2 11 8 23 14 27 16 10 -5 45 -60 103 -51 52 -49
58 18 94 43 24 48 24 55 6z m724 -596 c0 -15 -20 -101 -30 -124 -12 -31 -31
-153 -36 -233 -2 -40 -8 -81 -12 -90 -5 -9 -6 -30 -2 -47 3 -16 2 -55 -2 -85
-7 -53 -2 -226 8 -241 2 -4 0 -11 -6 -14 -6 -4 -8 -21 -5 -38 2 -18 7 -76 10
-130 2 -54 9 -105 13 -115 5 -9 12 -31 15 -49 6 -29 4 -33 -28 -44 -19 -7 -35
-17 -35 -22 0 -5 -12 -7 -26 -4 -19 3 -34 -3 -57 -24 -58 -53 -60 -50 -57 121
1 84 3 158 13 370 1 30 5 60 10 67 4 6 3 14 -3 18 -7 4 -8 41 -3 108 12 170
10 212 -11 236 -10 11 -22 18 -26 16 -4 -3 -10 2 -14 10 -7 19 -60 20 -75 2
-6 -8 -16 -37 -23 -66 -10 -46 -10 -56 6 -83 15 -25 16 -32 5 -40 -10 -7 -10
-11 -3 -14 8 -3 9 -17 3 -42 -4 -20 -10 -77 -14 -127 -3 -49 -8 -116 -11 -148
-3 -32 -7 -138 -9 -235 -5 -200 -17 -326 -34 -346 -7 -8 -27 -17 -45 -20 -25
-5 -36 -13 -40 -32 -8 -32 -23 -23 -35 23 -8 26 -7 39 1 44 6 4 7 12 4 18 -4
6 -2 11 4 11 7 0 4 7 -5 16 -13 14 -15 39 -12 176 2 111 7 162 16 167 8 6 9
15 2 33 -7 18 -5 59 6 135 8 59 15 122 14 138 0 17 6 62 15 100 16 77 10 134
-20 180 -13 20 -24 24 -51 22 l-35 -2 0 -54 c0 -29 -9 -83 -21 -120 -36 -115
-39 -127 -39 -157 0 -16 -4 -35 -9 -43 -7 -11 -12 -4 -20 25 -14 48 -14 57 -1
49 15 -9 12 4 -5 21 -8 9 -15 24 -15 33 0 10 -7 35 -15 54 -17 41 -20 97 -5
97 5 0 7 8 3 18 -3 9 -3 14 2 10 4 -4 46 22 93 58 56 43 92 64 104 61 11 -3
18 0 18 10 0 8 5 11 10 8 6 -3 10 -1 10 4 0 6 5 11 11 11 6 0 33 16 60 36 27
20 49 33 49 29 0 -3 12 3 26 14 15 12 35 21 45 21 11 0 18 5 17 12 -2 6 28 31
67 54 38 23 81 56 95 73 14 17 30 31 35 31 6 0 26 14 45 30 36 30 60 38 60 19z
m-1012 -410 c32 -32 52 -45 55 -37 3 7 6 0 6 -16 1 -20 12 -39 35 -60 28 -26
35 -42 46 -106 7 -41 14 -127 15 -190 2 -63 4 -115 5 -115 13 0 17 -367 5
-459 l-8 -58 -36 7 c-66 12 -96 12 -111 0 -26 -22 -75 -28 -90 -10 -12 14 -15
14 -31 -1 -20 -18 -83 -13 -93 9 -5 9 -7 9 -12 0 -4 -8 -27 -13 -66 -13 -59 0
-60 0 -54 25 5 19 2 25 -9 25 -9 0 -14 4 -11 8 3 5 6 51 7 103 1 52 6 99 11
105 4 6 3 25 -3 42 -7 22 -8 42 -1 64 6 18 10 40 10 48 0 62 39 259 53 270 4
3 9 28 12 55 8 70 18 105 29 105 5 0 7 9 3 19 -6 19 14 97 41 158 8 17 14 43
14 57 0 14 5 26 11 26 8 0 10 14 6 40 l-5 40 58 -46 c32 -25 81 -68 108 -95z"/>
<path d="M6100 4186 c0 -33 5 -58 14 -65 9 -8 12 -25 9 -56 -7 -55 4 -106 18
-84 8 11 12 10 28 -10 18 -23 69 -42 56 -21 -3 6 0 13 9 16 8 3 22 17 31 31
14 21 15 29 5 48 -7 13 -18 21 -25 19 -20 -8 -29 15 -13 34 38 48 41 63 17 88
-12 13 -33 24 -46 24 -13 0 -40 7 -60 15 -19 8 -37 15 -39 15 -2 0 -4 -24 -4
-54z"/>
<path d="M5930 9044 c0 -8 5 -12 10 -9 6 3 10 10 10 16 0 5 -4 9 -10 9 -5 0
-10 -7 -10 -16z"/>
<path d="M4328 8883 c7 -3 16 -2 19 1 4 3 -2 6 -13 5 -11 0 -14 -3 -6 -6z"/>
<path d="M3868 8793 c7 -3 16 -2 19 1 4 3 -2 6 -13 5 -11 0 -14 -3 -6 -6z"/>
<path d="M4946 7740 c-15 -19 -26 -44 -26 -61 0 -16 -7 -41 -16 -54 -13 -20
-14 -28 -4 -40 7 -8 9 -15 4 -15 -4 0 -3 -5 3 -11 7 -7 8 -21 1 -44 -12 -38
-3 -133 15 -155 20 -25 81 -66 97 -64 8 0 26 2 40 3 18 1 32 14 50 42 14 23
24 45 23 50 -2 5 0 9 5 9 9 0 9 66 -1 100 -3 14 -9 48 -11 75 -13 119 -33 164
-76 165 -9 0 -20 4 -25 9 -27 24 -53 21 -79 -9z"/>
<path d="M4442 7744 c-13 -9 -31 -12 -47 -8 -22 5 -25 3 -27 -22 -1 -16 0 -48
1 -71 2 -26 -2 -43 -8 -43 -6 0 -11 -15 -11 -32 -1 -18 -7 -64 -14 -101 -7
-37 -11 -90 -8 -118 4 -43 9 -52 31 -60 14 -6 33 -17 42 -25 15 -13 20 -12 50
16 18 16 37 30 41 30 4 0 11 12 14 28 4 15 11 32 16 39 5 6 10 65 12 130 1 65
6 124 10 131 9 15 -15 59 -52 94 -26 25 -30 26 -50 12z"/>
<path d="M4218 7043 c-15 -7 -39 -29 -53 -47 -31 -41 -26 -83 16 -120 28 -25
39 -72 22 -90 -5 -4 -8 -11 -9 -14 -4 -34 -18 -83 -25 -88 -5 -3 -9 -14 -9
-25 0 -10 -4 -19 -10 -19 -5 0 -10 -5 -10 -11 0 -6 -11 -24 -25 -41 -14 -16
-25 -35 -25 -42 0 -6 -20 -18 -44 -25 l-44 -13 -4 -63 -3 -64 50 5 c38 4 57
12 80 34 19 19 42 30 59 30 15 0 25 4 22 9 -3 5 10 23 29 40 19 17 35 37 35
44 0 8 7 21 16 28 9 7 20 24 25 37 9 24 11 24 87 17 42 -4 85 -11 95 -16 9 -6
17 -6 17 -2 0 4 32 9 72 11 39 2 79 7 88 12 11 6 21 5 27 -1 8 -8 17 -5 32 10
12 12 32 21 46 21 14 0 25 5 25 10 0 6 6 10 13 10 12 0 69 65 74 85 13 46 14
78 3 85 -15 10 -64 6 -67 -5 -1 -9 -27 -25 -40 -26 -5 -1 -23 -7 -42 -15 -18
-8 -48 -14 -65 -14 -18 0 -41 -7 -52 -15 -21 -16 -110 -20 -119 -5 -3 5 -12 7
-19 4 -7 -3 -32 2 -55 9 -23 8 -50 13 -61 10 -18 -5 -19 0 -19 58 1 75 -23
136 -70 180 -18 16 -33 29 -34 28 -1 -1 -14 -8 -29 -16z"/>
<path d="M3845 6999 c-16 -16 -37 -31 -45 -34 -18 -7 -51 -75 -83 -172 -20
-61 -24 -91 -23 -195 1 -96 5 -130 19 -157 9 -19 17 -40 17 -46 0 -19 89 -115
106 -115 8 0 33 -9 55 -20 32 -15 45 -17 59 -8 26 17 33 68 15 111 -12 30 -20
37 -43 37 -22 0 -36 10 -61 45 -18 25 -27 45 -21 45 8 0 9 6 5 18 -5 9 -9 33
-11 52 -1 19 -7 55 -13 79 -7 26 -8 48 -3 55 5 6 12 27 15 47 8 52 34 108 53
116 10 4 26 15 36 25 10 10 25 18 34 18 28 0 59 33 59 62 -1 35 -30 57 -77 58
-20 0 -42 2 -50 4 -7 3 -26 -8 -43 -25z"/>
<path d="M7185 360 c3 -5 8 -10 11 -10 2 0 4 5 4 10 0 6 -5 10 -11 10 -5 0 -7
-4 -4 -10z"/>
</g>
</svg>
